<?xml version="1.0" encoding="UTF-8"?>
<svg xmlns="http://www.w3.org/2000/svg" id="Layer_1" viewBox="0 0 85 64">
  <defs>
    <style>.cls-1{stroke-width:1.5px;}.cls-1,.cls-2,.cls-3{fill:none;stroke:#162f3b;stroke-miterlimit:10;}.cls-4{fill:#fff;}.cls-5{fill:#d2b1e8;}.cls-6{fill:#162f3b;}.cls-2{stroke-linecap:round;stroke-width:1.23px;}.cls-3{stroke-width:1.2px;}</style>
  </defs>
  <path class="cls-4" d="m33.5,44.41l49.51-.53c.34,0,.61-.28.61-.62l-.55-34.19c0-.34-.28-.61-.62-.6-6.85.08-69.92.18-70.35.9-.49.82.34,6.23.64,13.24"></path>
  <path class="cls-6" d="m33.5,44.36c13.07-.49,34.57-.91,47.61-1.11,0,0,1.32-.02,1.32-.02h.57s-.03,0-.04.01c-.08-1.41-.23-11.32-.3-12.98,0,0-.48-21.16-.48-21.16,0,.01.05.17.14.2.04.02.1.04.13.03h-.33c-.79.02-3.14,0-3.97,0-20.75,0-44.09-.18-64.79.19,0,0-.65.04-.65.04l-.31.03-.13.02s-.04.02.02-.02c.09-.08.08-.11.06-.06-.19.7-.12,1.71-.09,2.49.13,3.51.55,7.15.48,10.62-.27-3.9-.62-7.96-.84-11.93,0-.44-.03-.89.13-1.33.06-.17.23-.13.33-.16,9.57-.59,19.18-.44,28.76-.61,11.01-.06,28.83-.21,39.68-.25,0,0,1.32-.01,1.32-.01.2,0,.46-.05.7.09.23.12.36.39.36.63l.33,21.16.16,10.58c0,.89.07,1.74,0,2.67-.19.52-.78.47-1.22.46-3.03-.07-45.01.65-48.94.4h0Z"></path>
  <path class="cls-4" d="m28,44.41l55.47-.53c.34,0,.61-.28.61-.62l-.55-34.19c0-.34-.28-.61-.62-.6-6.85.08-69.92.18-70.35.9-.49.82.54,10.67.84,17.69"></path>
  <path class="cls-2" d="m15.68,14.03c1.14.38,12.5-.38,12.5-.38"></path>
  <path class="cls-2" d="m15.97,17.41c1.45-.1,6.73-.2,6.73-.2"></path>
  <line class="cls-2" x1="25" y1="16.88" x2="31.24" y2="16.72"></line>
  <line class="cls-2" x1="16.28" y1="20.31" x2="33.2" y2="20.17"></line>
  <path class="cls-3" d="m69.65,13.35c1.31-.16,7.28-.19,7.28-.19v8.62h-6.89c0-1.15-.38-8.43-.38-8.43Z"></path>
  <path class="cls-1" d="m36.01,29.18c.16-.13,32.04-1.4,32.68-1.15v8.38s-31.7,1.31-31.7,1.15c0-.96-.99-8.38-.99-8.38Z"></path>
  <path class="cls-6" d="m33.01,42.47c16.38.34,49.07.11,49.12.1.04-.01.07-.04.1-.07.04-.09.06-.1.05-.23,0,0-.32-21.11-.69-32.12-.02-.15-.12-.27-.3-.25l-1.57-.03c-1.62.05-5.42-.06-7.11-.03-18.95.37-40.43.58-59.02.94-.17.4-.21,1.01-.24,1.74-.07,3.5.22,8.78.28,12.29,0,.08-1.86.27-1.86.2-.03-4.63-.5-11-.13-15.3.05-.24.11-.6.4-.7.67-.17,1.86-.2,2.57-.26,19.21-.89,39.35-.76,58.59-.71,1.66.02,6.28.04,7.91.07,0,0,1.32,0,1.32,0,.5-.03,1.01.43.99.96,0,11,.15,22.26.56,33.27,0,0,.02.66.02.66.02.28.01.63-.18.87-.33.51-1.05.41-1.54.43-8.64.29-18.97.34-27.67.36-6.9-.12-16.28-.17-21.68-.17l.1-2.01Z"></path>
  <circle class="cls-4" cx="15.81" cy="42.54" r="14.49"></circle>
  <path class="cls-6" d="m15.81,57.89C7.35,57.89-.18,50.51-.18,42.04s7.53-14.85,16-14.85,15.35,6.89,15.35,15.35-5.54,15.87-15.35,15.35Zm-.23-29.64c-7.52,0-14.27,6.77-14.27,14.29s7.46,14.18,14.98,14.18,13.53-6.62,13.53-14.14-6.72-14.33-14.24-14.33Z"></path>
  <polygon class="cls-5" points="15.95 51.66 6.93 47.46 8.72 43.71 14.17 46.21 21.31 33.35 24.98 35.31 15.95 51.66"></polygon>
  <path class="cls-6" d="m16.3,52.65l-10.69-4.63,2.53-5.55,5.8,3.06,7.16-12.89,4.38,2.24-9.18,17.77Zm-8.66-5.44l8.09,3.77,8.6-15.72-2.96-1.48-6.97,13.12-5.42-2.49-1.33,2.8Z"></path>
</svg>
