<?xml version="1.0" encoding="UTF-8"?>
<svg xmlns="http://www.w3.org/2000/svg" id="Layer_1" viewBox="0 0 91.39 77.58">
  <defs>
    <style>.cls-1{fill:#fff;}.cls-2{fill:#d8ea53;}.cls-3{fill:#162f3b;}</style>
  </defs>
  <path class="cls-1" d="m63.03,41.27s-4.1,21.82-28.96,29.33c0,0-6.94,8.84-10.44,6.03-3.51-2.8-8.11-4.2-15.11-12.26C1.53,56.32-1.08,53.18.81,50.73s4.51-4.62,4.51-4.62c0,0,.52-12.72,12.47-27.46,11.94-14.74,17.06-7.94,18.61-4.74,0,0,6.35-3.03,9.61,2.9,0,0,8.24-3.49,12.28,5.96,0,0,19.53-20.45,24.03-20.77,5.67-.4,10.5,3.04,4.47,11.28-8.6,11.75-23.76,27.98-23.76,27.98Z"></path>
  <path class="cls-3" d="m63.99,42.21c-3.09,14.33-15.89,25.87-28.97,29.31-2.3,2.62-6.91,6.88-10.79,5.95-.33-.11-.62-.29-.89-.49-2.03-1.59-4.33-2.8-6.47-4.34-5.75-4.04-10.1-9.65-14.43-15.1-1.25-1.81-3.27-4.21-2.09-6.51,1.23-1.73,3.49-4.06,4.78-4.93,1.02-9.09,4.48-18.4,9.74-25.77,3.8-4.99,13.03-15.83,19.91-9.92.87.82,1.44,2.28,1.96,3.33l-.52-.18c1.81-.78,3.79-1.08,5.72-.61,1.94.46,3.53,1.92,4.46,3.64,0,0-.58-.2-.58-.2,5.45-2.16,10.91.9,12.92,6.19,0,0-.82-.15-.82-.15,6.49-6.74,12.28-12.82,19.58-18.71,1.58-1.16,2.99-2.4,4.96-3,1.99-.26,4.04-.03,5.79,1.02,6.64,3.97-.54,12.2-3.47,16.06-7.01,8.74-20.79,24.41-20.79,24.41Zm-1.54-1.45c7.49-8.38,14.07-14.81,20.98-23.65,2.47-3.49,8.93-10.09,3.78-13.7-1.47-.85-4.07-1.31-5.58-.65-5.53,2.39-23.63,21.41-23.63,21.41-1.84-5.25-6.43-8.04-11.92-6.03,0,0-.39.14-.39.14-1.76-3.85-6.31-4.67-9.93-2.92,0,0-.16-.34-.16-.34-5.43-10.68-14.96,1.02-19.11,6.69-5.36,7.27-8.62,15.91-9.61,24.91-1.72,1.5-3.82,2.75-5.08,4.59-1.01,2.1.49,3.62,1.75,5.22,8.23,10.51,18.06,17.14,20.14,18.76.2.15.4.27.62.34,3.36.66,7.25-3.23,9.31-5.54,0,0,.09-.1.09-.1l.12-.04c3.42-1.03,6.84-2.07,9.94-3.84,9.31-5.3,15.99-14.84,18.68-25.26h0Z"></path>
  <path class="cls-3" d="m34.74,17.45c-1.85,5.09-4.49,9.8-7.1,14.51-1.47,2.21-4.93,1.54-6.71.03-4.28-3.55,1.15-14.17,4.73-16.44-2.15,2.69-3.66,5.78-4.6,9.01-.99,3.33-1.34,5.66,2.6,7.05,1.57.56,3.41.08,4-1.7,1.92-4.28,3.7-9.71,6.28-13.39.22-.32.56,1.24.79.92h0Z"></path>
  <path class="cls-3" d="m45.37,21.53c-2.57,5.76-5.31,11.6-9.07,16.68-2.38,2.46-6.61,1.92-8.85-.49-2.73-2.68-.05-6.43,1.2-9.19,2-3.66,3.99-7.69,6.08-11.09-1.71,4.97-3.64,8.86-5.91,13.57-.42.93-.97,2.27-1.1,3.15-.13,4.08,5.57,5.44,8.28,2.33,1.14-1.36,2.16-2.43,3.02-4.02,1.81-3.34,3.58-8.72,5.71-11.79.19-.28.44,1.12.63.85h0Z"></path>
  <path class="cls-3" d="m56.13,27.42c-.21.39,1.75-.36,1.54.03-2.52,4.53-7.3,10.83-10.32,15.03-.59.83-1.06,1.28-1.84,1.93-2.79,2.62-6.93.45-8.59-2.74-1.97-3.07.37-5.42,1.74-8.37,2.24-3.87,4.48-8.1,6.72-11.77-1.91,5.31-4.11,9.89-6.71,14.87-.96,1.89-.99,3.02-.28,4.48.91,1.88,2.51,3.16,4.71,3.06,2.35-.06,2.75-.8,3.76-2.71,0,0,1.72-1.93,1.72-1.93,2.42-3.74,7.55-11.87,7.55-11.87Z"></path>
  <path class="cls-1" d="m43.03,47.34s2.58-3.74-1.71-8.86-5.93-6.86-3.58-11.38c1.28-2.47,3.43-2.46,5.11-1.43,1.68,1.03,13.73,7.78,14.16,13.88.43,6.1-1.82,14.46-8.86,20.09"></path>
  <path class="cls-3" d="m42.41,47.56c1.67-2.32,1.35-5.13-.17-7.53-1.53-2.35-3.8-4.23-5.18-6.84-1.73-2.87,1.01-8.96,4.94-8.27,2.16.56,3.84,2.03,5.73,3.13,4.38,3.13,10.64,7.09,10.37,13.17-.01,12.43-9.62,21.72-21.48,24.21-1.35.4-2.73.82-3.66,1.78-2.32,2.16-4.09,5.35-7.25,6.41-1.03.23-1.92-.92-2.9-1.57-4.5-3.52-8.94-7.15-12.97-11.22-1.92-2.11-4.2-4.12-4.97-6.99-.25-1.52,1.14-2.71,1.99-3.81.96-1.07,1.97-2.08,3.02-3.06l-.07.17c.2-8.02,3.67-15.52,7.92-22.15,3.76-5.56,11.32-18.49,17.36-7.8,0,0-.6-.18-.6-.18,3.1-1.5,7.42-1.73,9.73,1.24.74.93,1.25,2.01,1.58,3.1l-.57-.34c2.56-.45,5.19-.45,7.61.61,2.52,1.04,3.95,3.81,3.96,6.44,0,0-.9-.36-.9-.36l14.92-14.1c3.47-3.03,6.55-7.62,11.38-8.5,5.25-.95,4.25,5.33,3.11,7.05-2.03,3.27-4.74,5.85-7.22,8.73,0,0-6.19,6.9-6.19,6.9l-15.11,16.71s-.27-1.47.05-1.86c2.47-3.05,14.73-16.5,14.68-16.55,2.51-2.89,7.07-7.97,9.5-10.81,2.39-2.89,5.31-7.64,1.95-8.36-5.72-1.24-28.59,27.01-28.59,27.01l-.69-.65c3.15-6.27-.03-10.85-4.73-11.11-1.34-.08-3.41.35-4.71.62-1.19-5.13-5.16-6.3-9.62-4.23,0,0-.39.18-.39.18-1.32-2.45-3.49-5.47-6.48-3.74-4.17,2.52-6.44,6.64-9.22,10.58-4.28,6.47-7.42,13.87-7.68,21.72,0,0,0,.11,0,.11-1.07.98-2.22,2.15-3.19,3.22-.8,1.04-1.91,1.74-1.73,3.16.71,2.69,2.79,4.49,4.65,6.5,4.55,4.51,9.01,8.14,14.16,11.94,2.17,1.16,5.89-5.06,7.47-6.46,1.08-1.13,2.56-1.58,3.91-2.01,2.75-.8,5.73-1.18,8.17-2.59,2.45-1.37,4.69-3.14,6.52-5.26,3.68-4.23,5.42-9.14,5.48-14.74.32-2.85-1.25-4.98-3.19-6.98-2.97-3.02-5.83-5.05-9.55-7.07-1.96-1.06-4.08-.67-4.99,2.32-1.81,6.02,7.47,8.26,6.83,14.25-.08,1.45-.44,2.96-1.3,4.11l-1.7-.23Z"></path>
  <polygon class="cls-2" points="34.48 45.37 37.57 48.25 25.92 61.93 28.48 64.16 25.23 67.97 16.45 60.38 19.59 56.68 22.25 58.76 30.31 49.8 26.99 46.94 28.85 44.79 34.48 45.37"></polygon>
  <path class="cls-3" d="m25.13,68.95l-9.75-8.98,3.91-4.8,3.01,2.24,6.96-7.32-3.61-2.95,2.94-3.32,6.65.58,3.73,3.73-12.1,13.75,2.69,2.28-4.44,4.79Zm-7.66-9.02l7.72,7.09,2.59-2.81-2.56-2.23,11.66-13.69-2.61-2.43-5.2-.53-1.36,1.57,3.33,2.86-8.72,9.69-2.64-2.07-2.19,2.57Z"></path>
  <rect class="cls-3" x="17.22" y="39.18" width="1.31" height="10.39" transform="translate(17.2 -3.46) rotate(21.13)"></rect>
  <rect class="cls-3" x="19.67" y="40.13" width="1.31" height="10.39" transform="translate(17.71 -4.28) rotate(21.13)"></rect>
  <rect class="cls-3" x="17.76" y="42.08" width="1.31" height="8.86" transform="translate(-31.6 46.92) rotate(-68.87)"></rect>
  <rect class="cls-3" x="19.05" y="38.74" width="1.31" height="8.86" transform="translate(-27.66 45.99) rotate(-68.87)"></rect>
</svg>
