<?xml version="1.0" encoding="UTF-8"?>
<svg xmlns="http://www.w3.org/2000/svg" id="Layer_1" viewBox="0 0 85 64">
  <defs>
    <style>.cls-1{fill:none;}.cls-2{fill:#fff;}.cls-3{fill:#d2b1e8;}.cls-4{fill:#17303b;}.cls-5{fill:#162f3b;}</style>
  </defs>
  <path class="cls-2" d="m57,57.12c-1.12-4.82,1.2-9.81,5.94-11.36,4.73-1.55,9.63,1.12,11.27,5.76,1.89,5.42-1.12,9.72-5.76,11.27-4.73,1.46-10.32-1.03-11.44-5.68Z"></path>
  <rect class="cls-5" x="35.75" y="31.4" width="29.94" height="1.29"></rect>
  <path class="cls-5" d="m56.66,54.72h-6.54c-2.06,0-3.79-1.72-3.79-3.79V13.07c0-2.06,1.72-3.79,3.79-3.79h6.54v1.29h-6.54c-1.38,0-2.49,1.12-2.49,2.49v37.86c0,1.38,1.12,2.49,2.49,2.49h6.54v1.29Z"></path>
  <path class="cls-2" d="m35.41,1.2l-30.8.09c-.43,0-.77.34-.77.77l.6,60.65c0,.34.26.6.6.6l30.71-.09c.34,0,.6-.26.6-.6l-.17-60.65c0-.43-.34-.77-.77-.77Z"></path>
  <path class="cls-4" d="m4.7,1.98c-.17,0-.09,0,0,0q-.09,0,0,0l-.09.26.09,2.92c.17,18.5.26,36.39.52,55.57v2.06c0,.09.09.09.17.09,9.63-.26,19.1-.43,28.82-.52h1.46c.09,0-.09,0-.09,0-.09,0-.09.09-.09.17,0,0,0,.09,0,0v-.34c-.09-12.39-.17-25.72.17-38.02.09-5.51-.09-14.62-.09-20.04v-1.03c0-.6-.34-1.03-.86-1.03,0,0-19.79-.26-30.02-.09Zm30.71-.86c.69,0,.95.6.86,1.12v1.46c.17,14.37,1.03,29.51.95,43.87v14.97c.09.77-.68,1.37-1.46,1.28h-1.46s-21.51.18-29.34,0c-.6,0-1.12-.69-1.03-1.2v-1.81c.26-14.62-.26-29.25-.69-43.87-.09-4.9-.17-9.81-.17-14.71-.09-.86.69-1.72,1.55-1.72,10.32.17,20.56.69,30.8.6h0Z"></path>
  <polygon class="cls-2" points="17.43 13.08 9.34 13.25 9.43 6.97 17.6 6.97 17.43 13.08"></polygon>
  <path class="cls-4" d="m8.82,13.76v-7.4h9.2l-.17,7.14-9.03.26Zm1.12-6.28v5.25l7.05-.17.09-5.08h-7.14Z"></path>
  <rect class="cls-2" x="10.55" y="15.57" width="6.28" height="8.52" transform="translate(-6.19 33.45) rotate(-89.8)"></rect>
  <path class="cls-4" d="m18.46,23.57l-9.63-.09v-7.31h9.55l.09,7.4Zm-8.6-1.12h7.48v-5.25h-7.48v5.25Z"></path>
  <rect class="cls-2" x="10.12" y="25.46" width="6.28" height="8.17" transform="translate(-16.34 42.7) rotate(-89.79)"></rect>
  <path class="cls-4" d="m17.86,33.21h-9.2v-7.31h9.2v7.31Zm-8.17-1.03h7.14v-5.25h-7.14v5.25Z"></path>
  <rect class="cls-2" x="10.63" y="35.1" width="6.28" height="8.17" transform="translate(-25.46 52.82) rotate(-89.79)"></rect>
  <path class="cls-4" d="m18.37,42.84h-9.2v-7.31h9.2v7.31Zm-8.17-1.03h7.14v-5.25h-7.14v5.25Z"></path>
  <rect class="cls-2" x="23.19" y="6.11" width="6.28" height="8.17" transform="translate(16.04 36.49) rotate(-89.79)"></rect>
  <path class="cls-4" d="m30.93,13.85h-9.2v-7.31h9.2v7.31Zm-8.17-1.03h7.14v-5.25h-7.14v5.25Z"></path>
  <rect class="cls-2" x="23.54" y="15.66" width="6.28" height="7.83" transform="translate(7.01 46.18) rotate(-89.79)"></rect>
  <path class="cls-4" d="m31.02,23.23h-8.86v-7.31h8.86v7.31Zm-7.83-1.03h6.8v-5.25h-6.8v5.25Z"></path>
  <rect class="cls-2" x="23.45" y="35.1" width="6.28" height="8.17" transform="translate(-12.69 65.63) rotate(-89.79)"></rect>
  <path class="cls-4" d="m31.19,42.93h-9.2v-7.31h9.2v7.31Zm-8.17-1.03h7.14v-5.25h-7.14v5.25Z"></path>
  <polygon class="cls-2" points="26.63 63.23 13.47 63.31 13.56 50.58 26.72 50.5 26.63 63.23"></polygon>
  <path class="cls-4" d="m12.95,63.83l.09-13.85h14.28l-.09,13.85h-14.28Zm1.12-12.73l-.09,11.61,12.04-.09.09-11.61-12.04.09Z"></path>
  <path class="cls-4" d="m2.29,46.71c-.26,0-.52-.26-.52-.52s.26-.52.52-.52l34.84-.34h0c.26,0,.52.26.52.52s-.26.52-.52.52l-34.84.34h0Z"></path>
  <path class="cls-4" d="m38.16,48.69h0l-36.99-.17c-.26,0-.52-.26-.52-.52s.26-.52.52-.52h0l36.99.17c.26,0,.52.26.52.52,0,.26-.26.52-.52.52Z"></path>
  <rect class="cls-2" x="23.54" y="25.55" width="6.28" height="8.17" transform="translate(-3.06 56.21) rotate(-89.79)"></rect>
  <path class="cls-4" d="m31.28,33.38h-9.2v-7.31h9.2v7.31Zm-8.17-1.12h7.14v-5.25h-7.14v5.25Z"></path>
  <line class="cls-1" x1="20.09" y1="50.67" x2="20.44" y2="63.23"></line>
  <rect class="cls-4" x="19.84" y="50.67" width=".86" height="12.65" transform="translate(-1.57 .58) rotate(-1.59)"></rect>
  <path class="cls-5" d="m70.3,51.75h-9.29c-.34,0-.6-.26-.6-.6v-2.24c0-.34.26-.6.6-.6h9.29c.34,0,.6.26.6.6v2.24c0,.34-.26.6-.6.6Zm-9.12-.86h8.86v-1.81h-8.86v1.81Z"></path>
  <path class="cls-3" d="m57.59,56.49c-.14-.46-.44-1.58-.31-2.09l.1-.39,17.1-.52.28,1.3-.71-.06s-.08,0-.2,0c-.6,0-2.73.13-4.82,1.81l-.14.12-11.18.22-.12-.39Z"></path>
  <path class="cls-5" d="m74.05,54.04l.04.16s-.08,0-.24,0c-.72,0-2.95.16-5.15,1.93l-10.59.21s-.42-1.38-.3-1.81l16.26-.49m.85-1.09l-.89.03-16.26.49-.8.02-.2.78c-.12.48-.02,1.28.32,2.38l.23.77.81-.02,10.59-.21h.36s.28-.24.28-.24c1.95-1.57,3.93-1.7,4.48-1.7.09,0,.14,0,.16,0l1.42.1-.29-1.39-.03-.16-.19-.87h0Z"></path>
  <path class="cls-5" d="m66.03,63.32l-.77-.09c.43-4.73,4.65-9.2,9.29-9.46l.09.95c-4.3.34-8.26,4.22-8.6,8.6Z"></path>
  <path class="cls-5" d="m57,57.12c-2.06-8.26,5.42-15.31,13.33-11.01,7.31,4.22,6.8,14.71-1.81,17.29-4.73,1.55-10.5-1.38-11.53-6.28h0Zm.69-.43c1.89,7.14,12.3,7.48,15.66,1.55,2.24-3.87.52-9.38-3.61-11.53-6.62-3.36-13.76,3.01-12.04,9.98h0Z"></path>
  <path class="cls-2" d="m65.92,34.59c-1.12-4.82,1.2-9.81,5.94-11.36,4.73-1.55,9.63,1.12,11.27,5.76,1.89,5.42-1.12,9.72-5.76,11.27-4.73,1.46-10.32-1.03-11.44-5.68Z"></path>
  <path class="cls-5" d="m79.22,29.22h-9.29c-.34,0-.6-.26-.6-.6v-2.24c0-.34.26-.6.6-.6h9.29c.34,0,.6.26.6.6v2.24c0,.34-.26.6-.6.6Zm-9.12-.86h8.86v-1.81h-8.86v1.81Z"></path>
  <path class="cls-3" d="m66.51,33.95c-.14-.46-.44-1.58-.31-2.09l.1-.39,17.1-.52.28,1.3-.71-.06s-.08,0-.2,0c-.6,0-2.73.13-4.82,1.81l-.14.12-11.18.22-.12-.39Z"></path>
  <path class="cls-5" d="m82.97,31.5l.04.16s-.08,0-.24,0c-.72,0-2.95.16-5.15,1.93l-10.59.21s-.42-1.38-.3-1.81l16.26-.49m.85-1.09l-.89.03-16.26.49-.8.02-.2.78c-.12.48-.02,1.28.32,2.38l.23.77.81-.02,10.59-.21h.36s.28-.24.28-.24c1.95-1.57,3.92-1.7,4.48-1.7.09,0,.14,0,.16,0l1.42.1-.29-1.39-.04-.16-.19-.87h0Z"></path>
  <path class="cls-5" d="m74.95,40.78l-.77-.09c.43-4.73,4.65-9.2,9.29-9.46l.09.95c-4.3.34-8.26,4.22-8.6,8.6Z"></path>
  <path class="cls-5" d="m65.92,34.59c-2.06-8.26,5.42-15.31,13.33-11.01,7.31,4.22,6.8,14.71-1.81,17.29-4.73,1.55-10.5-1.38-11.53-6.28h0Zm.69-.43c1.89,7.14,12.3,7.48,15.66,1.55,2.24-3.87.52-9.38-3.61-11.53-6.62-3.36-13.76,3.01-12.04,9.98h0Z"></path>
  <path class="cls-2" d="m56.82,12.41c-1.12-4.82,1.2-9.81,5.94-11.36,4.73-1.55,9.63,1.12,11.27,5.76,1.89,5.42-1.12,9.72-5.76,11.27-4.73,1.46-10.32-1.03-11.44-5.68Z"></path>
  <path class="cls-5" d="m70.12,7.04h-9.29c-.34,0-.6-.26-.6-.6v-2.24c0-.34.26-.6.6-.6h9.29c.34,0,.6.26.6.6v2.24c0,.34-.26.6-.6.6Zm-9.12-.86h8.86v-1.81h-8.86v1.81Z"></path>
  <path class="cls-3" d="m57.41,11.77c-.14-.46-.44-1.58-.31-2.09l.1-.39,17.1-.52.28,1.3-.71-.06s-.08,0-.2,0c-.6,0-2.73.13-4.82,1.81l-.14.12-11.18.22-.12-.39Z"></path>
  <path class="cls-5" d="m73.87,9.32l.04.16s-.08,0-.24,0c-.72,0-2.95.16-5.15,1.93l-10.59.21s-.42-1.38-.3-1.81l16.26-.49m.85-1.09l-.89.03-16.26.49-.8.02-.2.78c-.12.48-.02,1.28.32,2.38l.23.77.81-.02,10.59-.21h.36s.28-.24.28-.24c1.95-1.57,3.93-1.7,4.48-1.7.09,0,.14,0,.16,0l1.42.1-.29-1.39-.04-.16-.19-.87h0Z"></path>
  <path class="cls-5" d="m65.85,18.6l-.77-.09c.43-4.73,4.65-9.2,9.29-9.46l.09.95c-4.3.34-8.26,4.22-8.6,8.6Z"></path>
  <path class="cls-5" d="m56.82,12.41c-2.06-8.26,5.42-15.31,13.33-11.01,7.31,4.22,6.8,14.71-1.81,17.29-4.73,1.55-10.5-1.38-11.53-6.28h0Zm.69-.43c1.89,7.14,12.3,7.48,15.66,1.55,2.24-3.87.52-9.38-3.61-11.53-6.62-3.36-13.76,3.01-12.04,9.98h0Z"></path>
</svg>
