<?xml version="1.0" encoding="UTF-8"?>
<svg xmlns="http://www.w3.org/2000/svg" id="Layer_1" viewBox="0 0 100.84 84.5">
  <defs>
    <style>.cls-1{fill:#fff;}.cls-2{fill:#162f3b;}.cls-3{fill:#d8ea53;stroke:#162f3b;stroke-miterlimit:10;}</style>
  </defs>
  <polygon class="cls-1" points="55.35 4.71 60.09 1.71 63.06 6.47 68.32 4.52 70.23 9.8 75.78 8.98 76.55 14.54 82.16 14.89 81.75 20.49 87.16 22 85.6 27.39 90.58 29.99 87.93 34.95 92.26 38.52 88.64 42.82 92.13 47.22 87.69 50.67 90.19 55.69 85.14 58.14 86.54 63.58 81.09 64.93 81.32 70.54 75.71 70.72 74.77 76.26 69.25 75.27 67.18 80.49 61.98 78.38 58.87 83.05 54.22 79.9 50.21 83.83 46.32 79.79 41.58 82.79 38.61 78.03 33.35 79.98 31.44 74.7 25.89 75.52 25.12 69.96 19.52 69.61 19.92 64.01 14.51 62.5 16.07 57.11 11.1 54.51 13.74 49.55 9.42 45.98 13.03 41.68 9.55 37.28 13.98 33.84 11.48 28.81 16.53 26.36 15.14 20.92 20.59 19.57 20.35 13.96 25.96 13.78 26.9 8.24 32.43 9.23 34.49 4.01 39.7 6.12 42.8 1.45 47.45 4.6 51.46 .67 55.35 4.71"></polygon>
  <path class="cls-2" d="m50.2,84.5l-3.95-4.11-4.82,3.06-3.01-4.84-5.35,1.99-1.94-5.36-5.64.83-.78-5.65-5.69-.36.41-5.69-5.49-1.53,1.58-5.48-5.06-2.64,2.69-5.03-4.39-3.64,3.68-4.36-3.54-4.47,4.5-3.5-2.54-5.11,5.13-2.49-1.42-5.53,5.54-1.37-.24-5.7,5.7-.19.95-5.62,5.62,1,2.1-5.3,5.28,2.15,3.16-4.75,4.72,3.2,4.08-3.99,3.95,4.11,4.82-3.06,3.01,4.84,5.35-1.99,1.94,5.36,5.64-.83.78,5.65,5.69.36-.41,5.69,5.49,1.53-1.58,5.48,5.06,2.64-2.69,5.03,4.39,3.64-3.68,4.36,3.54,4.47-4.5,3.5,2.54,5.11-5.13,2.49,1.42,5.53-5.54,1.37.24,5.7-5.7.19-.95,5.63-5.62-1-2.1,5.3-5.28-2.15-3.16,4.75-4.72-3.2-4.08,3.99Zm-3.81-5.32l3.83,3.98,3.95-3.87,4.57,3.1,3.06-4.6,5.12,2.08,2.03-5.14,5.44.97.92-5.45,5.52-.18-.23-5.52,5.36-1.32-1.37-5.35,4.97-2.41-2.46-4.95,4.36-3.39-3.43-4.33,3.56-4.22-4.26-3.52,2.6-4.87-4.9-2.56,1.53-5.31-5.32-1.49.4-5.51-5.51-.35-.76-5.47-5.47.81-1.88-5.19-5.18,1.92-2.92-4.69-4.66,2.96-3.83-3.98-3.95,3.86-4.57-3.1-3.06,4.6-5.12-2.08-2.03,5.14-5.44-.97-.92,5.45-5.52.18.23,5.52-5.36,1.32,1.37,5.35-4.97,2.41,2.46,4.95-4.36,3.39,3.43,4.33-3.56,4.22,4.26,3.52-2.6,4.87,4.9,2.56-1.53,5.31,5.32,1.49-.4,5.51,5.51.35.76,5.47,5.47-.81,1.88,5.2,5.18-1.93,2.92,4.69,4.66-2.96Z"></path>
  <circle class="cls-1" cx="50.75" cy="42.38" r="34.78"></circle>
  <path class="cls-2" d="m50.59,77.23c-31.66-.38-46.99-37.22-24.49-59.72C43.94,0,73.97,5.68,83.59,28.95c9.61,23.39-7.92,48.53-33.01,48.28h0Zm.04-1.94c30.33-.17,45.38-35.25,24.36-56.94-11.5-11.87-34.64-13.47-47.69-.04-21.22,21.42-6.92,56.68,23.33,56.98h0Z"></path>
  <path class="cls-2" d="m34.75,43.45l-3.63.37-1.45-14.22-3.4,1.73-.31-3.02,6.51-3.47.38-.04,1.9,18.64Z"></path>
  <path class="cls-2" d="m48.18,34.89c.13,2.58-.25,4.58-1.12,6-.87,1.42-2.18,2.16-3.91,2.25-1.72.08-3.08-.52-4.08-1.8-1-1.29-1.58-3.17-1.73-5.65l-.17-3.53c-.12-2.58.25-4.57,1.11-5.98.87-1.41,2.17-2.16,3.92-2.24,1.75-.08,3.12.53,4.12,1.83,1,1.31,1.57,3.21,1.7,5.72l.16,3.4Zm-3.83-3.61c-.07-1.47-.27-2.57-.6-3.29-.33-.72-.8-1.07-1.41-1.04-1.15.06-1.69,1.43-1.6,4.13l.23,4.66c.07,1.51.27,2.62.61,3.34.33.72.81,1.07,1.43,1.04.59-.03,1.01-.39,1.27-1.1s.35-1.76.3-3.19l-.22-4.56Z"></path>
  <path class="cls-2" d="m60.91,35.07c-.05,2.59-.56,4.56-1.53,5.91-.97,1.35-2.32,2.01-4.06,1.97-1.72-.04-3.04-.73-3.95-2.08s-1.36-3.27-1.34-5.75l.07-3.53c.05-2.58.56-4.54,1.52-5.89.96-1.35,2.32-2,4.06-1.97,1.75.04,3.07.74,3.98,2.11.91,1.37,1.34,3.31,1.31,5.82l-.07,3.41Zm-3.57-3.87c.03-1.47-.09-2.58-.37-3.32-.28-.74-.72-1.12-1.34-1.13-1.16-.02-1.78,1.31-1.88,4.01l-.1,4.66c-.03,1.51.09,2.63.37,3.38.28.74.73,1.12,1.36,1.13.59.01,1.04-.32,1.34-1.01.3-.68.47-1.74.52-3.16l.09-4.56Z"></path>
  <path class="cls-2" d="m63.38,27.77c.12-1.13.53-2.03,1.23-2.67.7-.65,1.58-.92,2.65-.81,1.06.11,1.88.55,2.44,1.32.56.77.78,1.75.65,2.94l-.1.93c-.12,1.15-.53,2.04-1.24,2.67-.7.63-1.59.89-2.64.78-1.05-.11-1.86-.55-2.43-1.32-.57-.77-.79-1.75-.66-2.95l.1-.91Zm2.72,14.07l-1.61-1.15,9.16-13.74,1.62,1.15-9.18,13.74Zm-.47-12.84c-.05.51.01.93.2,1.25s.44.51.78.54c.34.04.63-.09.86-.39.23-.29.38-.7.43-1.21l.1-.95c.05-.49,0-.91-.18-1.25-.17-.34-.43-.53-.78-.57-.34-.04-.63.09-.87.39-.24.3-.38.71-.44,1.23l-.1.95Zm3.98,10.01c.12-1.15.54-2.04,1.25-2.68.71-.64,1.59-.9,2.64-.79,1.06.11,1.87.55,2.43,1.31.57.76.78,1.75.66,2.96l-.1.93c-.12,1.14-.53,2.03-1.23,2.67-.7.64-1.58.9-2.65.79-1.08-.11-1.9-.56-2.46-1.33s-.77-1.74-.65-2.91l.1-.95Zm2.26,1.25c-.05.48.02.89.21,1.24.19.35.45.54.76.57.71.08,1.13-.39,1.27-1.4l.12-1.16c.05-.5,0-.92-.18-1.25-.18-.33-.43-.52-.77-.55-.75-.08-1.19.53-1.33,1.84l-.08.73Z"></path>
  <path class="cls-1" d="m100.79,69.58s-10.1,4.37-12.57,2.46c-2.47-1.91-1.12-11.75-1.12-11.75,0,0,8.98-.82,11.67-2.73l-3.37,7.11,5.39,4.92Z"></path>
  <path class="cls-2" d="m94.52,64.75c1.35-3.17,3.39-6.18,3.39-6.18-3.83,1.66-6.73,2.47-10.79,2.84,0,0,.21-1.09.21-1.09-.42,2.83-.9,9.97,1.82,11.63,3.88.71,7.8-2.03,9.06-3.01l-3.68-4.19Zm6.31,4.84c-3.36,1.71-6.84,3.22-10.63,3.37-2.86.12-3.51-1.58-3.81-3.56-.57-3.79.24-5.97.47-9.15l.02-.17s.19-.03.19-.03c2.96-.44,5.15-1.26,8.01-2.1,1.54-.39,4.5-1.65,5.75-2.53,0,0-4.57,9.34-4.57,9.34,1.6,1.52,3.02,3.25,4.58,4.82h0Z"></path>
  <path class="cls-1" d="m88.22,72.04c.08.06.17.12.27.17-.18-3.75,4.69-3.92,4.69-3.92,0,0-3.42-4.23-6.37-4.9-.19,3.06-.15,7.44,1.41,8.66Z"></path>
  <path class="cls-2" d="m88.19,72.08c-2.32-2.41-2.09-6.22-1.8-9.3,1.63.36,3.01,1.32,4.1,2.41.97.92,2.06,2.45,2.97,3.43-1.94.26-4.69,1.37-4.53,3.73-.12-.07-.63-.17-.74-.26h0Zm-.32-.39c-.36-2.99,2.64-3.73,5.3-3.56,0,0-.12.27-.12.27-1.6-2-3.91-3.87-6.34-4.55,0,0,.58-.43.58-.43-.01,2.23-.48,3.38.07,6.28.14.71.52,1.99.52,1.99Z"></path>
  <path class="cls-1" d="m.88,70.43s10.1,4.37,12.57,2.46c2.47-1.91,1.12-11.75,1.12-11.75,0,0-8.98-.82-11.67-2.73l3.37,7.11-5.39,4.92Z"></path>
  <path class="cls-2" d="m1.57,70.55c1.79.76,7.37,3.36,11.25,2.65,2.72-1.66,1.95-9.19,1.53-12.02,0,0,.14.92.14.92-4.05-.37-7.72-1.66-11.38-3.68,0,0,2.13,4.78,3.95,6.91l-5.5,5.22Zm3.27-5.23s-2.07-3.39-3.94-9.33c0,0,7.26,4.04,13.7,4.92,0,0,.19.03.19.03l.02.17c.22,3.17,1.03,5.35.47,9.15-.3,1.98-.95,4.16-3.81,4.04-3.78-.16-8.1-1.57-11.46-3.28,0,0,4.06-4.53,4.84-5.69Z"></path>
  <path class="cls-1" d="m13.45,72.9c-.08.06-.17.12-.27.17.18-3.75-4.69-3.92-4.69-3.92,0,0,3.42-4.23,6.37-4.9.19,3.06.15,7.44-1.41,8.66Z"></path>
  <path class="cls-2" d="m13.48,72.94c-.11.09-.6.41-.72.47.16-2.35-4.17-3.36-4.51-3.2,1.2-.59,1.97-3.25,2.94-4.17,1.09-1.09,2.47-2.05,4.1-2.41.3,3.09.52,6.9-1.8,9.3h0Zm.84-2.39c.55-2.9.08-4.05.07-6.28,0,0,.58.43.58.43-2.43.68-4.75,2.55-6.34,4.55,0,0-.14.21-.14.21,2.67-.17,4.2.66,5,3.14,0,0,.71-1.34.84-2.04Z"></path>
  <path class="cls-1" d="m8.24,50.78s18.65-2,42.58-1.95c23.93.06,42.67,1.74,42.67,1.74l-.02,17.75s-21.95-2.39-42.38-2.66c-15.17-.2-31.55,2.06-42.58,3.48l-.26-18.37Z"></path>
  <path class="cls-2" d="m8.2,50.75c28.22-4.78,57.01-3.91,85.31-.34,0,0,.14.02.14.02v.15c0,5.35.06,13.47.09,18.82-21.28-1.83-42.72-3.88-64.04-1.84-7.18.61-14.29,1.83-21.46,2.66l-.05-19.46h0Zm1.31,18.06c7.03-1.01,16.81-2.07,23.9-2.73,19.91-1.84,52.01.9,59.08,1.7l.3-16.53c-28.22-3.52-55.13-3.65-83.5.55l.22,17.01Z"></path>
  <polygon class="cls-3" points="19.41 52.9 21.27 56.66 25.42 57.27 22.41 60.19 23.12 64.32 19.41 62.37 15.7 64.32 16.41 60.19 13.41 57.27 17.56 56.66 19.41 52.9"></polygon>
  <polygon class="cls-3" points="35.14 51.9 36.99 55.66 41.14 56.26 38.14 59.19 38.85 63.32 35.14 61.37 31.43 63.32 32.13 59.19 29.13 56.26 33.28 55.66 35.14 51.9"></polygon>
  <polygon class="cls-3" points="50.86 51.4 52.72 55.16 56.87 55.76 53.86 58.69 54.57 62.82 50.86 60.87 47.15 62.82 47.86 58.69 44.86 55.76 49 55.16 50.86 51.4"></polygon>
  <polygon class="cls-3" points="66.58 51.9 68.44 55.66 72.59 56.26 69.59 59.19 70.3 63.32 66.58 61.37 62.87 63.32 63.58 59.19 60.58 56.26 64.73 55.66 66.58 51.9"></polygon>
  <polygon class="cls-3" points="82.31 52.9 84.16 56.66 88.31 57.27 85.31 60.19 86.02 64.32 82.31 62.37 78.6 64.32 79.31 60.19 76.3 57.27 80.45 56.66 82.31 52.9"></polygon>
</svg>
