<?xml version="1.0" encoding="UTF-8"?>
<svg xmlns="http://www.w3.org/2000/svg" id="Layer_1" viewBox="0 0 85 64">
  <defs>
    <style>.cls-1{fill:#fff;}.cls-2{fill:#201d1e;}</style>
  </defs>
  <rect class="cls-2" x="-.01" y="49.21" width="59.61" height="13.32"></rect>
  <rect class="cls-1" x="-1.48" width="62.55" height="49.21"></rect>
  <path class="cls-2" d="m29.79,6.98c12.26,0,23.13,6.04,29.81,15.29V1.47H-.01v20.79C6.67,13.01,17.54,6.98,29.79,6.98"></path>
  <path class="cls-2" d="m29.79,8.45C17.38,8.45,6.42,14.79-.01,24.4v23.34h59.61v-23.33c-6.43-9.62-17.4-15.96-29.81-15.96"></path>
  <path class="cls-1" d="m29.79,8.45c12.41,0,23.38,6.35,29.81,15.96v-2.14c-6.68-9.26-17.55-15.29-29.81-15.29S6.67,13.01-.01,22.26v2.14c6.44-9.61,17.39-15.96,29.8-15.96"></path>
  <path class="cls-1" d="m33.11,39.3c0-.22.05-.56.22-1.06.43-1.23,1.51-2.98,3.42-4.78-1.44,3.46-2.79,5.5-3.28,5.88-.16.12-.27.17-.33.19-.02-.04-.03-.11-.03-.24m-3.1-5.83c-.64,1.64-1.55,3.49-2.64,4.35-.05.04-.1.08-.14.1.05-.68.88-2.51,2.77-4.46Zm.37-2.6c-.91.81-1.74,1.18-2.03,1.18,0-.09.04-.29.23-.67.54.02,1.14-.15,1.81-.5Zm1.42-2.51c.17-.04.29-.04.36-.03-.02.03-.05.07-.1.11-1.08,1-2.03,1.64-2.78,1.89,1.18-1.53,2.2-1.89,2.52-1.97Zm-10.43,1.62c.15-.08.26-.1.33-.1-.02.11-.14.38-.6.78-.34.29-.66.56-.95.8.48-1,1.02-1.38,1.22-1.48Zm-9.27-2.46c.17,0,.2.08.22.11.01.04.03.1.03.16,0,.41-.36,1.25-1.45,2.37-1.47,1.5-2.85,2.43-4.09,3,2.17-4.18,4.39-5.68,5.3-5.64Zm-6.24,5.42c-.13.25-.22.48-.29.7-2.4.72-3.99.08-4.1.03-.24-.1-.51.01-.61.25-.1.24,0,.51.25.61.11.05,1.77.73,4.25.13,0,.03,0,.07,0,.1,0,.7.29,1.17.68,1.42,1.08.7,3.45.1,6.88-3.41-.22.64-.42,1.33-.55,2.05,0,.03,0,.06,0,.09,0,.2.12.38.3.45.37.15.59-.16.77-.43l.48-.71c.41-.62,1.34-2.02,1.97-2.75-.08.4-.15.85-.15,1.28,0,.58.14,1.11.61,1.39.39.23,1.02.31,2.39-.51.12.32.35.47.48.53.87.41,2.52-.47,4.23-2.11-.23.52-.41.95-.46,1.13-.01.05-.02.1-.02.14,0,.22.13.38.28.44.38.17.62-.16.81-.43l.52-.75c.43-.63,1.44-2.12,2.03-2.74.17.43.49.97,1.05,1.28-.16.37-.24.69-.24.95,0,.33.12.58.37.74.44.3,1.11.13,1.81-.25-2.23,2.21-3.26,4.42-3.29,5.4,0,.02,0,.04,0,.06,0,.55.27.76.43.85.34.17.75.06,1.23-.31,1.68-1.33,2.9-4.5,3.53-6.44.84-.68,1.82-1.35,2.95-1.95-.37.64-.57,1.25-.57,1.74,0,.18.03.34.08.48.13.34.41.56.76.6.78.09,1.84-.73,3.11-2.29-.11.31-.21.61-.32.9-3.51,2.77-5.09,5.72-5.29,7.33-.02.13-.03.25-.03.36,0,.64.26.94.49,1.07.27.15.72.22,1.39-.29.74-.57,2.51-3.34,4.23-7.91,2.28-1.75,5.4-3.42,9.55-4.57.21-.06.35-.25.35-.46,0-.04,0-.08-.02-.12-.07-.25-.33-.4-.58-.33-3.62,1-6.5,2.41-8.74,3.93.27-.79.53-1.63.79-2.52.01-.04.02-.09.02-.13,0-.18-.1-.35-.28-.43-.21-.1-.46-.02-.59.18-2.34,3.67-3.66,4.34-3.96,4.33-.02-.03-.03-.08-.03-.14,0-.42.36-1.46,1.52-2.69.08-.09.13-.21.13-.32,0-.09-.03-.19-.09-.27-.13-.18-.36-.25-.57-.16-1.48.62-2.75,1.36-3.85,2.15.01-.04.02-.08.02-.1,0-.04.02-.07.02-.11,0-.17-.1-.33-.26-.42-.01,0-.02,0-.02,0,.32-.25.66-.53,1.01-.86.37-.34.46-.66.46-.89,0-.1-.02-.19-.04-.25-.11-.33-.42-.55-.84-.6-1.04-.12-2.68.76-4.16,2.93-.5-.27-.7-.93-.79-1.23l-.04-.12c-.06-.2-.24-.32-.45-.32-.32,0-.66.22-1.19.85,0-.01.01-.03.02-.04.03-.06.04-.13.04-.2,0-.16-.08-.32-.23-.4-.21-.12-.48-.07-.62.12-2.62,3.53-4.91,4.51-5.27,4.33,0-.01-.01-.04-.01-.1,0-.04,0-.1.02-.17.59-.42,1.28-.97,2.1-1.68.76-.66.93-1.19.93-1.54,0-.16-.04-.28-.07-.36-.16-.36-.53-.56-.98-.52-.97.08-2.19,1.22-2.8,3.54-1.52,1.04-1.93.88-1.98.85-.21-.12-.19-.77.05-1.93.1-.52.15-.75.03-.97-.11-.21-.31-.34-.54-.35-.49-.02-1.05.49-2.22,2.14.46-1.09.91-1.85.92-1.86.05-.08.07-.16.07-.24,0-.15-.07-.29-.2-.39-.2-.14-.48-.1-.63.09-4.13,5.04-6.94,6.09-7.74,5.57-.17-.11-.25-.33-.25-.62,0-.12.02-.26.05-.4,1.55-.55,3.33-1.61,5.23-3.55,1.12-1.14,1.72-2.22,1.72-3.03,0-.18-.03-.35-.09-.51-.17-.42-.55-.68-1.04-.71-1.48-.07-4,1.87-6.28,6.36Z"></path>
  <path class="cls-1" d="m46.57,17.03c-.29,0-.55.18-.66.45,0,0-2.58,6.62-2.88,7.37-.81.04-7.87.42-7.87.42-.37.02-.67.33-.67.7,0,.01,0,.02,0,.04.02.39.35.68.74.67l8.32-.44c.28-.01.52-.19.62-.45,0,0,1.58-4.05,2.39-6.12.8,2.07,2.37,6.09,2.37,6.09.1.26.34.43.61.45,0,0,4.3.25,6.49.37-1.69,1.4-5.02,4.17-5.02,4.17-.16.14-.26.33-.26.54,0,.06,0,.12.02.17,0,0,1.07,4.17,1.62,6.3-1.85-1.19-5.45-3.52-5.45-3.52-.23-.15-.53-.15-.76,0,0,0-3.64,2.32-5.53,3.52.57-2.08,1.61-5.81,1.61-5.81.01-.06.02-.13.02-.19,0-.31-.2-.59-.52-.68-.37-.1-.76.12-.87.49l-2.09,7.57c-.08.28.03.58.26.75.24.17.55.18.8.03,0,0,6.01-3.82,6.69-4.26.68.44,6.59,4.25,6.59,4.25.24.16.56.15.79-.02.18-.14.29-.35.29-.57,0-.06-.01-.12-.02-.17,0,0-1.75-6.84-1.95-7.61.61-.51,6.05-5.02,6.05-5.02.16-.14.26-.34.26-.54,0-.08-.01-.15-.04-.22-.09-.27-.34-.47-.63-.48,0,0-7.01-.4-7.82-.45-.3-.75-2.86-7.35-2.86-7.35-.1-.27-.37-.45-.65-.45"></path>
  <polyline class="cls-1" points="59.6 49.21 59.6 62.53 -.01 62.53 -.01 49.21 -1.48 49.21 -1.48 64 61.07 64 61.07 49.21 59.6 49.21"></polyline>
  <polyline class="cls-1" points="2.56 59.6 2.56 52.14 6.4 52.14 6.4 52.97 3.51 52.97 3.51 55.37 6.19 55.37 6.19 56.19 3.51 56.19 3.51 58.77 6.46 58.77 6.46 59.6 2.56 59.6"></polyline>
  <polyline class="cls-1" points="12.76 52.14 12.76 59.6 11.46 59.6 8.52 53.14 8.5 53.14 8.5 59.6 7.65 59.6 7.65 52.14 8.99 52.14 11.9 58.53 11.92 58.53 11.92 52.14 12.76 52.14"></polyline>
  <polyline class="cls-1" points="14.08 59.6 14.08 52.14 17.92 52.14 17.92 52.97 15.03 52.97 15.03 55.37 17.72 55.37 17.72 56.19 15.03 56.19 15.03 58.77 17.98 58.77 17.98 59.6 14.08 59.6"></polyline>
  <path class="cls-1" d="m21.19,56.17c.32,0,1.05.04,1.13.95.08.99.02,1.96.29,2.48h.99c-.15-.46-.25-1.63-.26-1.95-.05-1.5-.36-1.79-1.22-1.92v-.02c.88-.15,1.36-.82,1.36-1.7,0-.93-.46-1.86-1.79-1.86h-2.57v7.46h.95v-3.43h1.11m-1.11-3.2h1.44c.73,0,1,.6,1,1.14,0,.65-.33,1.24-1.01,1.24h-1.42v-2.37Z"></path>
  <path class="cls-1" d="m28.09,54.14c0-.88-.36-1.35-1.32-1.35-.3,0-1.37.05-1.37,1.61v2.52c0,1.63.48,2.04,1.37,2.04.68,0,1.14-.19,1.33-.33v-2.23h-1.37v-.83h2.32v3.63c-.61.33-1.32.56-2.28.56-1.58,0-2.34-.82-2.34-2.88v-2.45c0-1.49.76-2.44,2.34-2.44s2.38.59,2.31,2.15h-.99"></path>
  <polyline class="cls-1" points="33.6 52.14 34.56 52.14 32.53 56.76 32.53 59.6 31.58 59.6 31.58 56.76 29.57 52.14 30.64 52.14 32.09 55.75 33.6 52.14"></polyline>
  <path class="cls-1" d="m37.77,57.38v.22c0,1.01.64,1.33,1.25,1.33.75,0,1.33-.32,1.33-1.21,0-1.65-3.35-1.47-3.35-3.71,0-1.32.94-2.02,2.19-2.02,1.36,0,2.13.66,2.07,2.18h-.99c0-.82-.25-1.35-1.15-1.35-.57,0-1.15.29-1.15,1.09,0,1.64,3.34,1.41,3.34,3.77,0,1.57-1.08,2.08-2.31,2.08-2.2.02-2.2-1.66-2.18-2.38h.94"></path>
  <polyline class="cls-1" points="46.62 52.14 46.62 52.97 44.66 52.97 44.66 59.6 43.71 59.6 43.71 52.97 41.75 52.97 41.75 52.14 46.62 52.14"></polyline>
  <path class="cls-1" d="m45.83,59.6h.96l.56-1.78h2.88l.53,1.78h1.07l-2.43-7.46h-1.21l-2.36,7.46m4.14-2.6h-2.39l1.17-3.98h.02l1.2,3.98Z"></path>
  <path class="cls-1" d="m54.63,56.17c.32,0,1.05.04,1.12.95.08.99.02,1.96.29,2.48h.99c-.14-.46-.24-1.63-.26-1.95-.05-1.5-.36-1.79-1.22-1.92v-.02c.88-.15,1.36-.82,1.36-1.7,0-.93-.46-1.86-1.79-1.86h-2.57v7.46h.95v-3.43h1.11m-1.11-3.2h1.44c.73,0,1,.6,1,1.14,0,.65-.33,1.24-1.01,1.24h-1.43v-2.37Z"></path>
</svg>
