<?xml version="1.0" encoding="UTF-8"?>
<svg xmlns="http://www.w3.org/2000/svg" id="Layer_1" viewBox="0 0 130.66 65">
  <defs>
    <style>.cls-1{fill:#fff;}.cls-2{fill:#17303b;}.cls-3{fill:#162f3b;}.cls-4{fill:#d8ea53;stroke:#162f3b;stroke-miterlimit:10;stroke-width:1.45px;}</style>
  </defs>
  <path class="cls-1" d="m50.42,16l.02,6.29s9.49-4.91,10.95,4.92c1.63,11.02-4.78,14.24-10.97,12.3v6.29c15.77,3.22,17.95-11.03,17.41-17.85-.49-6.35-4.32-17.18-17.41-11.96Z"></path>
  <path class="cls-2" d="m50.89,16.91c.14,1.83,0,2.14.11,3.92,0,0-.4.07-.4.07,6.9-3.58,12.3.27,12.59,7.99.58,7.67-4.54,14.59-12.41,12.13,0,0-.11-.61-.11-.61,0,2.1.07,3.3.14,5.4l-.31-1.26c10.92,2,16.31-4.18,16.37-14.46.16-7.93-3.4-15.7-12.66-13.91-.97.08-2.75-.33-3.71-.12l.39.86Zm-.55-1.98c14.76-7.41,22.11,10.28,18.07,22.35-2.5,8.16-10.15,11-18.07,8.91,0,0-.32-.07-.32-.07.08-2.2.1-4.4.11-6.6v-.39s.49-1.14.49-1.14c7.42,2.15,10.83-1.93,10.11-8.81-.38-7.36-4.43-8.88-10.82-6.12.05-2.2.29-4.91.43-7.1v-1.01Z"></path>
  <path class="cls-1" d="m55.2,6.21c0-1.58-.42-2.28-1.05-2.45-2.67-.72-10.58-2.45-25.16-2.45C13.43,1.32,5.01,3.06,2.2,3.78c-.64.16-1.08.86-1.08,2.41h0c0,.09,0,.17,0,.24v50.89c0,.57.42,1.07,1.05,1.24,2.67.72,10.58,3.54,25.16,3.54,15.56,0,23.98-2.83,26.79-3.55.64-.16,1.08-.67,1.08-1.25V6.46c0-.07,0-.16,0-.24h0Z"></path>
  <path class="cls-2" d="m55.7,5.58c-.06-.81-.95-1.12-1.75-1.55-3.86-.94-7.91-1.66-11.87-1.99-13.75-.82-25.64-.22-39.2,2.38-.83.4-2.22.96-2.28,1.77-.02-.85.06-2.41.96-2.89,3.85-1.17,7.81-1.93,11.8-2.41C23.21-.11,33.17-.18,43.02.82c4,.48,8.27.8,12.1,2.03.87.52.58,1.88.58,2.74h0Z"></path>
  <path class="cls-2" d="m27.98,9.23c-4.54,0-9.17-.32-13.68-.82-4.19-.51-8.47-1.33-12.31-3.06,0,.02.14,0,.16-.02.02-.02-.02.04-.06.11-.34.86-.26,1.16-.23,2.15.1,3.19.14,8.22.16,11.39.06,7.59.4,36.29.4,36.29,7.78,3.89,17.72,3.99,26.45,4.14,8.72.15,16.22-.25,24.28-2.65.23-.11,1.11-.16,1.07-.57-.07-7.05-.12-17.16-.12-24.32,0,0,.11-13.12.11-13.12.05-3.17.11-8.21.21-11.39.06-.82.18-1.22-.21-1.88-.03-.05-7.82,4.19-26.23,3.74h0Zm0-1.97c7.88-.06,15.84-.35,23.32-2.79.85-.29,2.77-.75,3.57-1.13.32-.17.36-.11.66.1.73.56.63,13.13.65,15.32.13,11.8.12,26.8-.02,38.54.01.95-.72,1.82-1.62,2.09,0,0-.87.23-.87.23-1.62.41-3.35.9-4.99,1.22-11.18,2.27-22.76,2.26-34.04.81-3.94-.53-7.84-1.42-11.64-2.52-.5-.18-1.28-.25-1.69-.67-.53-.42-.57-1.19-.54-1.76,0,0-.02-1.64-.02-1.64l-.05-3.28C.51,41.62.1,29.1.23,18.98c0-3.17.1-8.21.16-11.39,0-1.6-.27-4.82,2.8-3.76,7.62,2.63,15.47,2.83,24.79,3.43h0Z"></path>
  <path class="cls-3" d="m7.22,46.22l.82-3.62-1.15-.26.36-1.6,1.15.26.43-1.9,1.84.42-.43,1.9,1.41.32-.36,1.6-1.41-.32-.71,3.14c-.1.43.06.81.46.91.27.06.56.02.68-.06l.08,1.47c-.33.18-.86.27-1.63.1-1.28-.29-1.82-1.11-1.54-2.34Z"></path>
  <path class="cls-3" d="m12.11,49.04l1.08-7.04,1.85.29-.15.96c.59-.55,1.54-.91,2.42-.78l-.28,1.81c-.13-.05-.3-.09-.5-.12-.61-.09-1.48.12-1.86.52l-.72,4.65-1.85-.28Z"></path>
  <path class="cls-3" d="m21.98,50.22l.06-.73c-.53.53-1.4.81-2.32.73-1.13-.09-2.41-.96-2.28-2.55.13-1.66,1.52-2.16,2.65-2.06.94.08,1.75.44,2.18,1.05l.08-.98c.06-.72-.52-1.24-1.46-1.32-.76-.06-1.49.16-2.14.67l-.6-1.31c.93-.69,2.07-.96,3.19-.87,1.62.13,3.05.89,2.88,2.94l-.37,4.58-1.87-.15Zm.21-2.59c-.28-.44-.85-.69-1.45-.74-.73-.06-1.37.29-1.42.96-.05.66.52,1.09,1.25,1.15.6.05,1.21-.11,1.55-.5l.07-.88Z"></path>
  <path class="cls-3" d="m25.69,41.1c.01-.62.54-1.11,1.14-1.1.62.01,1.11.52,1.1,1.14s-.52,1.11-1.14,1.1c-.6-.01-1.11-.52-1.1-1.14Zm.02,9.29l.14-7.12,1.87.04-.13,7.12-1.87-.03Z"></path>
  <path class="cls-3" d="m34.6,50.23l-.22-4.3c-.05-.99-.58-1.3-1.38-1.26-.74.04-1.29.48-1.58.92l.24,4.78-1.87.1-.36-7.11,1.87-.1.05.93c.43-.57,1.27-1.17,2.43-1.23,1.56-.08,2.36.77,2.43,2.15l.26,5.02-1.87.1Z"></path>
  <path class="cls-3" d="m40.54,42.24c2.1-.31,3.76,1.05,4.11,3.35l.06.41-5.23.78c.25.87,1.08,1.51,2.27,1.33.66-.1,1.39-.48,1.78-.98l1,1.07c-.62.76-1.66,1.25-2.75,1.41-2.14.32-3.98-.88-4.31-3.14-.31-2.04.95-3.91,3.09-4.23Zm-1.28,3.29l3.47-.52c-.14-.66-.74-1.48-1.97-1.3-1.15.17-1.52,1.11-1.5,1.82Z"></path>
  <path class="cls-3" d="m46.5,48.59l-1.63-6.93,1.82-.43.22.95c.34-.73,1.09-1.42,1.95-1.62l.42,1.78c-.14,0-.31.03-.51.08-.6.14-1.33.66-1.53,1.18l1.08,4.58-1.82.43Z"></path>
  <rect class="cls-2" x="6.46" y="25.45" width="17.45" height="2.75" transform="translate(-11.89 41.57) rotate(-89.07)"></rect>
  <rect class="cls-2" x="12.27" y="26.32" width="17.45" height="2.75" transform="translate(-7.04 48.25) rotate(-89.07)"></rect>
  <rect class="cls-2" x="16.28" y="21.26" width="2.75" height="17.02" transform="translate(-12.41 46.91) rotate(-89.02)"></rect>
  <rect class="cls-2" x="17.15" y="15.44" width="2.75" height="17.02" transform="translate(-5.74 42.07) rotate(-89.02)"></rect>
  <path class="cls-4" d="m36.98,37.13v-16.13l-3.67,3.77-2.7-2.83,7-7.03h4.13v22.23h-4.77Z"></path>
  <path class="cls-1" d="m90.97,39.81c-4.56.54-12.25,3.4-17.02,7.94-4.76,4.55.22,10.17.22,10.17,0,0,35.08,6.71,44.6,6.28,9.52-.43,10.83-11.82,10.39-13.21-1.44-4.54-16.83-13.74-38.19-11.19Z"></path>
  <path class="cls-2" d="m91.59,39.44c-4.97.7-9.76,3.54-13.76,6.49-4.57,3.3-6.62,6.13-2.93,11.11,0,0,14.12,3.09,21.6,4.23,5.44.66,17.56,2.13,22.71.29,6.83-2.45,8.86-5.16,9.02-9.84.02-.49-.09-.59-.24-1-1.39-3.24-4.29-5.74-7.39-7.4-6.54-3.5-22.35-4.63-29.69-3.78l.69-.1Zm-.79-1.15c10.87-1.42,33.63.17,39.06,11.67.86,2.04.13,4.23-.43,6.22-2.09,6.59-15.02,9.67-21.83,8.6-6.6-.71-15.83-2.8-22.44-3.97-3.82-.67-7.62-1.38-11.42-2.18-2.99-3.16-3.96-8.46-.26-11.47,4.91-4.14,11.04-7.87,17.31-8.88h0Z"></path>
  <path class="cls-2" d="m112.7,40.44c-7.2,2.46-11.62,3.61-17.19,10.26-1.34,1.6-2.11,5.3-2.1,7.41,0,0-2.49.09-2.49.09.06-2.29.66-8.01,5.14-11.73,3.51-2.9,8.89-6.27,13.37-7.1,0,0,.03.19.03.19l3.25.88Z"></path>
  <path class="cls-2" d="m79.27,44.3l1.37-1.6c.57-.12,12.05-2.73,21.9.43l-1.67,1.26c-7.81-2.11-21.46-.12-21.6-.09Z"></path>
  <path class="cls-2" d="m86.75,42.02s1.35-4.72,6-4.51c5.11.22,5.67,3.86,5.67,5.29l-11.67-.78Z"></path>
</svg>
