<?xml version="1.0" encoding="UTF-8"?>
<svg xmlns="http://www.w3.org/2000/svg" id="Layer_1" viewBox="0 0 110.08 69.05">
  <defs>
    <style>.cls-1{fill:#ebba8c;}.cls-2{fill:#fff;}.cls-3{fill:#fbe0c2;}.cls-4{fill:#162f3b;}</style>
  </defs>
  <path class="cls-1" d="m15.3,34.38s3.07,5.54,8.35,9.9c10.05,8.3,25.78,18.34,27.39,20.03,0,0,3.87,1.42,9.29,2.58,5.42,1.16,8.77-4.64,8.77-4.64,7.87,1.16,5.58-5.96,5.58-5.96,7.35.77,7.05-6.09,7.05-6.09,3.35.77,6.74-.98,7.13-4.33.39-3.35-3.37-6.45-10.85-12.26-7.48-5.81-20.77-12.77-21.16-12.77,0,0-15.74-6.32-18.84-6.32s-9.03-4.26-9.03-4.26"></path>
  <path class="cls-3" d="m96.21,35.54l-13.94-24.6s-9.37.87-16.39-.62c-7.03-1.5-17.95-.45-22.32,3.32-4.37,3.77-11.51,13.82-9.03,15.13s6.12.73,8.59-.58,10.68-8.47,13.3-7.16c0,0,30,18.39,31.31,21.59,0,0,7.17-5.48,8.48-7.08Z"></path>
  <path class="cls-2" d="m89.78.5s-9.5,5.38-9.66,6.17,18.68,33.87,19.31,33.56,9.5-5.38,9.81-6.02S91.04.82,89.78.5Z"></path>
  <path class="cls-4" d="m89.69,1.93c-2.52,1.34-8.9,4.66-8.89,4.8,0,.06.24.38.37.65,5.8,9.93,12.18,21.69,18.36,31.71.05.07,6.14-3.21,8.99-5.32-.02.02-.03.05-.03.07,0,0-.06.11-.07.17-.04.42,0,.25,0,.3,0,.02,0-.01-.01-.03-1.93-4-4.3-7.84-6.44-11.79-1.99-3.64-7.22-12.42-9.13-15.95-.88-1.51-3.15-4.61-3.15-4.61Zm.08-1.52c.54.24.79.76,1.18,1.18,2.25,2.93,4.24,6.04,6.22,9.15,4.48,7.16,8.72,14.37,12.41,22,.16.36.35.75.47,1.15,0,.11.07,0,.02.49-.03.11-.05.21-.11.27-.11.16-.33.39-.45.47-3.14,2.15-6.45,3.79-9.82,5.54-.71.35-1.16-.86-1.51-1.3-1.84-3.09-3.73-6.46-5.59-9.53-4.59-7.51-9.62-14.8-13.11-22.92-.14-.41.25-.91.51-1.09,3.07-2.2,6.39-3.77,9.78-5.41h0Z"></path>
  <path class="cls-2" d="m10.35,40.25S.84,34.9.68,34.11C.52,33.31,19.25.17,19.88.49s9.51,5.35,9.83,5.98S11.62,39.93,10.35,40.25Z"></path>
  <path class="cls-4" d="m10.34,40.34c-3.4-1.63-6.72-3.19-9.8-5.38-.24-.18-.67-.65-.52-1.08,3.47-8.13,8.48-15.44,13.04-22.96,1.85-3.07,3.73-6.45,5.56-9.54.11-.15.53-.87.69-1.03.1-.13.33-.37.58-.34.28.04.2.06.23.06,1.93.98,3.83,1.95,5.7,3,1.53.94,3.2,1.62,4.52,2.88.08.12.15.19.18.36.05.49-.02.38-.02.49-.12.4-.3.79-.47,1.15-3.67,7.64-7.89,14.86-12.34,22.04-1.97,3.12-3.95,6.23-6.19,9.17-.39.43-.63.93-1.17,1.18h0Zm-.14-1.18c1.04-1.36,2.42-2.83,3.29-4.34,4.57-8.57,10.45-19.11,15.02-27.6.14-.28.29-.6.39-.84.01.05-.03-.12.01.3.01.06.06.16.07.17,0,.03,0,.05.03.07.05.04-.05-.04-.08-.06-2.93-2.11-8.58-4.68-8.52-4.71-2.35,3.06-4.24,6.29-6.22,9.76-4.02,7.62-8.64,14.63-12.79,22.17,0,0-.05.12-.05.12h0s.02-.09.01-.14c-.03-.13-.02-.14-.06-.2,2.71,2.3,8.9,5.32,8.9,5.32Z"></path>
  <path class="cls-4" d="m19.95,43c-2.46-2.59-6.36-7.86-6.52-8.09l1.46-1.08c.04.05,4,5.4,6.38,7.91l-1.31,1.25Z"></path>
  <path class="cls-4" d="m64.78,39.27c4.77,3.22,9.74,6.22,14.8,8.92,1.61.85,3.16,2.14,5.01,2.27,0,0,.07.17.07.17-.91.57-2.67.84-3.64.57-1.24-.34-4.88-2.8-7.24-4.54-3.17-2.26-6.21-4.67-9.11-7.25l.11-.14h0Z"></path>
  <path class="cls-4" d="m60.21,47.85c4.66,1.95,8.9,4.62,13.35,6.94,1.49.72,2.91,1.57,4.6,1.73-1.14.31-2.45.26-3.85-.04-5.1-1.11-11.29-5.66-14.09-8.62h0Z"></path>
  <path class="cls-4" d="m56.91,56.16c4.53,2.36,9.2,4.2,13.86,6.24,0,0,.03.18.03.18-2.63,1.08-5.44-.43-7.6-1.82-2.24-1.35-4.37-2.82-6.39-4.45l.1-.15h0Z"></path>
  <path class="cls-4" d="m82.29,10.89c1.22.86-4.6.67-5.03.66-5.46-.13-9.32-.28-14.75-.75-7.57-.64-15.94.16-20.91,6.75-1.82,2.17-8.48,9.09-4.82,10.67,3.59,1.55,9.07-3.71,13.04-6.08,4.22-2.5,7.16-2.62,10.51-1.93-3.59-.16-7.17,1.25-10.16,3.1-3.49,2.69-7.02,6.4-11.7,7.16-1.93.32-4.73-.48-4.82-2.82-.06-1.07.26-2,.62-2.88,1.55-3.41,4-6.2,6.55-8.86,2.47-2.7,5.57-4.99,9.26-5.62,8.94-1.84,18.25-.01,27.22.7,1.36.05,3.71.43,5.04.12.04-.03.05-.02.03-.05-.02-.03-.06-.07-.11-.09l.04-.09h0Z"></path>
  <path class="cls-4" d="m55.7,20.75c8.01,3.33,15.71,7.63,22.43,13.15,2.9,2.56,7.3,5.66,9.77,8.6,3.59,4.14-1.29,9.78-6.14,8.56,0,0,.71-.61.71-.61.1,1.96-.43,4-1.97,5.33-1.52,1.33-3.61,1.55-5.52,1.4,0,0,.83-.84.83-.84.41,5.02-3.27,7.5-7.96,6.65,0,0,.78-.37.78-.37-.99,1.56-2.25,2.81-3.8,3.78-3.13,2.18-6.94.75-10.19-.27-1.61-.53-3.21-1.09-4.76-1.76l.05-.14c3.2.87,6.55,1.7,9.8,2.18,3.2.43,5.26-2.18,6.83-4.74,0,0,.26-.42.26-.42l1.25.23c4.32.61,5.82-1.61,5.32-6,0,0,1.75.2,1.75.2,4.15.55,4.88-2.59,4.59-6.71,2.09.73,4.57.73,6.07-1.08,1.39-1.59,1.82-3.43.36-5.07-2.29-2.98-6.11-5.65-9.1-7.91-6.89-5.09-14.27-9.64-21.35-14.17h0Z"></path>
  <path class="cls-4" d="m27.86,10.2c2.98.91,5.67,2.59,8.63,3.31,1.93.21,3.84.42,5.66,1.2,0,0-.01.11-.01.11-2.54-.4-5.21.18-7.65-.73-2.41-.94-4.59-2.33-6.7-3.8,0,0,.07-.09.07-.09h0Z"></path>
  <path class="cls-3" d="m48.6,53.86c-.31-.06-.75.16-1.25.55l.21-.3s.77-7.1-5.29-7.61c0,0-.13.09-.35.25,1.06-1.99,1.35-4.27-1.46-5.67-1.96-.98-4-2.32-7.22-.39-.92.55-2.08,1.5-3.24,2.68.17-.84.21-2.73-2.56-3.32-3.61-.77-5.55.9-7.74,3.87-2.19,2.97-1.12,5.88.9,7.35,1.31.95,2.52,1.34,4.31.59-.15.82-.19,1.62-.05,2.38.24,1.32,3.62,6.81,8.23,3.62-.31.98-.36,1.83-.1,2.57.65,1.81,1.42,3.87,7.22,3.87.77,5.03,4.64,4.39,6.71,3.74,2.06-.64,6.06-6.58,6.58-9.16.52-2.58-1.61-4.37-4.9-5.03Z"></path>
  <path class="cls-4" d="m44.4,69.05c-.97,0-1.81-.22-2.51-.66-1.19-.74-1.95-2.09-2.24-4h0c-.16-1.05,4.21-7.5,6.69-9.86,1.01-.96,1.76-1.36,2.37-1.23,1.78.36,3.22,1.03,4.16,1.94,1.06,1.03,1.47,2.33,1.18,3.75-.52,2.61-4.54,8.83-6.97,9.59-.98.31-1.88.46-2.69.46Zm-3.62-4.76c.25,1.53.82,2.59,1.71,3.14,1,.62,2.43.65,4.26.08,1.81-.57,5.72-6.36,6.19-8.73.21-1.04-.08-1.96-.86-2.72-.79-.76-2.03-1.33-3.6-1.65-.25-.05-1.55.69-4.28,4.4-1.95,2.64-3.29,4.99-3.42,5.48Z"></path>
  <path class="cls-4" d="m46.64,54.59c-.31-2.94-1.11-6.86-4.48-6.7,0,0,.9-.23.9-.23-1.57,1.26-3.12,2.79-4.44,4.32-1.27,1.53-2.57,3.36-3.55,5.07-.58,1.06-.98,1.93-.89,2.9,0,.14.14.52.18.69.65,2.61,3.6,2.89,5.93,3.08l-.07.69c-1.1,0-2.21-.06-3.3-.29-3.81-.65-5.26-4.6-3.35-7.81,2.04-3.94,5.03-7.49,8.72-9.93,2.78.14,4.92,2.43,5.25,5.14.15.87.2,1.74.12,2.62l-.18-.02-.83.48Z"></path>
  <path class="cls-4" d="m38.64,50.7c1.69-2.05,4.29-4.88,3.23-7.59-.93-1.52-2.48-2.27-4.16-2.38-3.77-.25-9.2,4.58-11.2,8.58-.7,1.67-1.31,3.53-.69,5.29,2.06,4.26,5.67,4.88,9.03,1.55,0,0,.11.1.11.1-.58.86-1.3,1.65-2.21,2.26-3.09,2.24-6.95-.19-8.37-3.25-1.58-4.3,1.79-9.08,4.72-11.92,2.34-2.02,4.8-4.52,8.24-4.19,1.76.3,3.04,1.09,4.46,2.05,1.49,1.09,1.74,3.33.97,4.82-.92,2-2.42,3.51-4.03,4.8l-.1-.11h0Z"></path>
  <path class="cls-4" d="m29.89,43.79c.06-.32-.79.66-.8.39-.1-2.05-1.89-3.39-3.83-3.25-2.15.09-3.3,1.22-4.65,3.03-.71.88-1.2,1.76-1.37,2.76-.47,2.75,2.26,5.11,5.47,4.12.44-.13.22,1.03.67.82-3.31,2.62-8.18-1.26-7.55-5.14.59-3.34,4.23-7.41,7.82-7.23,2.51,0,5.64,1.6,4.25,4.51h0Z"></path>
  <path class="cls-4" d="m88.1,43.31l-1.14-1.45c.06-.04,5.98-4.32,8.69-7.64l1.26,1.89c-2.9,3.56-8.56,7.05-8.81,7.2Z"></path>
</svg>
