<?xml version="1.0" encoding="UTF-8"?>
<svg xmlns="http://www.w3.org/2000/svg" id="Layer_1" viewBox="0 0 85 64">
  <defs>
    <style>.cls-1{fill:#fff;}.cls-2{fill:#d2b1e8;}.cls-3{fill:#17303b;}.cls-4{fill:#162f3b;}.cls-5{stroke:#162f3b;stroke-linecap:round;stroke-width:.48px;}.cls-5,.cls-6{fill:none;stroke-miterlimit:10;}.cls-6{stroke:#17303b;}</style>
  </defs>
  <path class="cls-1" d="m12.75,62.97l58.85.23-6.72-40.99c-.08-.47-.48-.82-.96-.82-5.21-.03-39.55-.09-39.71-.41-.59-1.18-1.63-3.39-2.13-3.54-.89-.26-10.57-.31-13.72-.3-.29,0-.51.25-.48.54l4.88,45.29Z"></path>
  <path class="cls-3" d="m72.19,63.04l-59.91.44L7.35,17.74c-.03-.28.06-.57.25-.78.19-.21.46-.33.74-.34.18,0,12.76,0,13.87.32.52.15.71.04,1.89,2.62.16.36.32.69.44.96,1.7.16,39.68.04,39.68.04.73,0,1.16.46,1.28,1.18l6.68,41.31Zm-58.76-.94l57.98.61-7.14-40.45c-.04-.22-.23-.39-.45-.39h-1.67c-3.94-.03-38.1-.2-38.3-.6-.15-.3-.35-.74-.57-1.22-.43-.94-1-1.74-1.33-2.08-1.25-.2-8.77-.2-13.09-.07l4.57,44.19Z"></path>
  <path class="cls-1" d="m47.62,1.02l-4.07,34.31c-.03.26.16.5.42.54l23.12,2.78c.26.03.5-.16.54-.42l4.34-34.27"></path>
  <path class="cls-4" d="m47.2.98c-2.27,14.43-2.2,17.46-3.58,32,0,0-.19,1.83-.19,1.83l-.05.46c-.09.4.3.8.68.78,5.83.72,12.86,1.7,18.72,2.52,0,0,3.65.49,3.65.49l.46.06.11.02c.52.11,1.1-.38,1.11-.88.72-5.63,1.46-11.28,2.12-16.91.98-9.51,1.2-8.48,2.1-17.18.02-.19-.72-.03-.7-.22-1.17,9.68-1.33,7.51-2.56,17.26-.69,5.63-1.31,11.29-1.95,16.93,0,.06,0,0,0,.02h0s.02,0-.02,0c-.25-.04-3.88-.4-4.24-.45-5.9-.61-12.29-1.68-18.13-2.38-.55,0-.36-.52-.33-.87,0,0,.23-1.83.23-1.83,1.21-9.45,3.31-31.57,3.31-31.57l-.4-.04-.36-.04Z"></path>
  <path class="cls-4" d="m59.72,11.54l.83-5.51,6.77.81-.58,5.6-7.01-.91Zm1.58-4.72l-.61,4.04,5.3.64.47-3.99-5.17-.69Z"></path>
  <path class="cls-4" d="m58.85,18.85l.85-5.66,6.85.8-.68,5.63-7.03-.77Zm1.47-4.74l-.46,3.97,5.28.55.45-3.88-5.27-.65Z"></path>
  <path class="cls-4" d="m57.99,25.8l.76-5.63,7.02.87-.76,5.63-7.02-.87Zm1.47-4.62l-.49,3.79,5.26.66.46-3.74-5.24-.71Z"></path>
  <path class="cls-4" d="m50.19,10.3l.85-5.65,6.84.81-.72,5.74-6.97-.91Zm1.56-4.62l-.51,3.89,5.19.8.5-4.14-5.18-.55Z"></path>
  <path class="cls-4" d="m48.49,24.5l.74-5.49,7.02.85-.73,5.7-7.03-1.06Zm1.64-4.66l-.47,3.84,5.1.7.55-3.86-5.18-.68Z"></path>
  <polygon class="cls-1" points="52.62 36.9 58.67 37.65 59.82 28.06 53.92 27.44 52.62 36.9"></polygon>
  <path class="cls-4" d="m51.57,36.89l1.3-10.28,7.45,1.07-1.23,10.2-7.52-.99Zm2.26-8.93l-1.08,8.43,5.32.66,1.15-8.38-5.38-.72Z"></path>
  <path class="cls-4" d="m73.79,4.6c.22.02.45-.38.48-.6.03-.23-.13-.47-.35-.5L46.09.15h0c-.22-.02-.43.18-.46.4-.03.23.11.67.33.7l27.82,3.34h0Z"></path>
  <path class="cls-4" d="m67.89,36c.18.02.34-.1.37-.28.03-.19-.07-.54-.26-.57l-5.61-1.04c-.35-.07-.52.16-.55.34s-.02.54.32.6l5.7.95s.01,0,.02,0Z"></path>
  <path class="cls-4" d="m50.72,33.25c.33.07.57-.09.59-.27.02-.19.07-.53-.37-.6l-6.63-.96s-.02.04-.02.04c-.19-.02-.35.22-.37.41-.02.19.11.36.3.38l5.06.81s1.45.19,1.45.19Z"></path>
  <path class="cls-4" d="m49.09,17.74l.85-5.68,7.03.81-.62,5.79-7.26-.92Zm1.53-4.72l-.49,4.01,5.46.5.45-3.87-5.42-.65Z"></path>
  <circle class="cls-1" cx="32.1" cy="28.9" r="15.49"></circle>
  <path class="cls-4" d="m46.77,32.81c3.61-12.95-10.25-23.65-22.04-17.18-6.85,3.58-9.76,13.49-5.58,20.6,6.62,11.61,23.85,9.44,27.62-3.43h0Zm.75.02c-2.65,11.22-16.7,15.74-25.39,8.55-10.67-8.85-6.58-26.37,8.29-28.42,11.19-1.31,20.3,9.16,17.11,19.86h0Z"></path>
  <path class="cls-3" d="m25.28,23.07c.03.19.86,3.75.88,3.81,0,0,2.23-.37,3.31-.59,2.82-.52,5.9-1.22,8.14-1.61-.04.08-.59-3.21-.72-3.41-.37-.08-11.61,1.8-11.61,1.8Zm-1.03-.56c2.82-.52,6.03-1.12,8.97-1.48,1.04-.14,2.25-.36,3.3-.49.29-.04.76-.16,1.03.02.2.34.42,1.68.62,2.5.06.39.26,1.2.26,1.61,0,.2.1.31-.04.49l-.1.1-.06.02-.12.04c-4.17.97-12.86,2.57-12.88,2.51-.18-.76-.97-5.33-.97-5.33Z"></path>
  <path class="cls-2" d="m44.9,32.49c-.27.84-.56,1.61-.92,2.34l-20.76,3.8c-2.12-1.88-3.52-4.48-4.08-7.22l26.07-4.8c.3,1.94.21,3.94-.3,5.88Z"></path>
  <path class="cls-4" d="m24.02,39.47l-1.02-.6c-2.1-1.87-3.59-4.49-4.18-7.39l-.07-.32,26.72-4.92.05.33c.31,2.03.21,4.05-.31,6.01v.02c-.32.98-.61,1.72-.95,2.39l-.84.92-19.4,3.57Zm-4.48-7.24c.6,2.58,1.59,4.46,3.45,6.16l20.58-3.59c.29-.6.74-1.52,1.02-2.39.47-1.76.73-3.27.49-5.1l-25.54,4.92Z"></path>
  <path class="cls-5" d="m27.85,35.6c-.16-.29-.34-2.06-.34-2.06"></path>
  <path class="cls-5" d="m31.51,34.94c-.16-.29-.34-2.06-.34-2.06"></path>
  <path class="cls-5" d="m32.47,34.76c-.16-.9-.4-2.04-.4-2.04"></path>
  <path class="cls-5" d="m33.94,34.48c-.16-.9-.34-2.06-.34-2.06"></path>
  <path class="cls-5" d="m35.02,34.26c-.16-.9-.4-2.04-.4-2.04"></path>
  <path class="cls-5" d="m36.16,34.01c-.16-.9-.34-2.06-.34-2.06"></path>
  <path class="cls-5" d="m37.53,33.83c-.24-.94-.55-2.06-.55-2.06"></path>
  <path class="cls-5" d="m38.01,31.57c.24.94.55,2.06.55,2.06"></path>
  <path class="cls-5" d="m29.08,35.4c-.06-.39-.34-2.06-.34-2.06"></path>
  <path class="cls-5" d="m30.02,35.16c-.12-.57-.34-2.06-.34-2.06"></path>
  <path class="cls-4" d="m41.31,19.95c-7.93-8.19-21.51-2.61-21.91,8.73-.37,6.92,5.4,12.84,12.46,12.82,11.3.28,17.26-13.32,9.45-21.55h0Zm.81-.62c6.61,6.85,3.96,19.04-5.17,22.25-11.94,4.28-22.01-7.23-17.22-18.25,3.88-8.82,15.94-10.98,22.39-4h0Z"></path>
  <path class="cls-1" d="m13.1,63.01l59.67-.21,6.68-29.28c.21-.63-.56-1.3-1.22-1.32-6.78-.14-37.92.35-38.4.53-1.11.43-1.55,3.94-2.78,4.06-.61.06-11.96.53-14.05.49-.2,0-.37.11-.45.29l-9.46,25.44Z"></path>
  <path class="cls-3" d="m73.15,63.33l-60.85.2,9.83-26.04c.44-.96,1.17-.83,1.57-.83,6.78.13,12.79-.5,13.25-.54.34-.03.85-1.47,1.12-2.12.43-1.02,1.04-2.24,1.29-2.29.17-.03,1.9-.74,39.2,0,.48,0,.92.24,1.19.63.28.39.35.88.2,1.34l-6.8,29.64Zm-59.28-.81l58.58-.42,6.25-28.77c.05-.15.03-.3-.06-.42-.09-.12-.22-.19-.37-.19-16.54-.33-36.86.14-38.27.25-.31.18-1.92,4.4-2.26,4.46-.71.11-14.07.27-14.54.52l-9.35,24.57Z"></path>
  <line class="cls-6" x1="18.15" y1="60" x2="70.26" y2="59.54"></line>
</svg>
