<?xml version="1.0" encoding="UTF-8"?>
<svg xmlns="http://www.w3.org/2000/svg" id="Layer_1" viewBox="0 0 85 64">
  <defs>
    <style>.cls-1{fill:#fff;}.cls-2,.cls-3{fill:#d2b1e8;}.cls-4{fill:#162f3b;}.cls-3{stroke:#162f3b;stroke-miterlimit:10;stroke-width:.9px;}</style>
  </defs>
  <polyline class="cls-1" points="3.25 53.41 3.4 3.61 15.6 3.38 15.75 54.1"></polyline>
  <path class="cls-4" d="m2.82,53.46c-.76-16.3-.56-33.55-.56-49.85v-1.06h1.06c3.03-.08,9.17-.23,12.2-.23h1.14v1.14c0,12.2-.15,25.93-.45,38.05-.15,4.25-.06,8.16-.1,12.66,0,.08-.99.08-.99,0,.08,0,.1-51.25.4-50.56l-11.72.5c.23-.83.25,49.92.03,49.39l-1.01-.03Z"></path>
  <polyline class="cls-1" points="37.74 53.41 37.81 18.47 50.1 18.69 50.17 53.41"></polyline>
  <path class="cls-4" d="m36.55,53.45c-.1-4.28.2-23.46.2-34.98v-1.14h1.14c3.03,0,9.17.15,12.2.23h1.06c0,.3-.08,9.17-.08,9.7-.08,5.76.23,23.12,0,26.08,0,.08-1.06.08-1.06,0,.08,0-.38-35.17-.08-34.57l-12.2-.23.15-.15c-.08.08.15,35.4-.23,35.02l-1.11.04Z"></path>
  <polyline class="cls-1" points="54.87 53.41 54.95 4.97 67.23 4.9 67.38 53.41"></polyline>
  <path class="cls-4" d="m54.22,53.4c.04-10.76-.19-24.32-.26-36.3l-.08-12.13v-1.06c3.56-.08,9.78-.15,13.34-.15h1.14v1.14c-.08,7.05,0,17.36-.23,24.26-.15,8.11-.3,16.22-.68,24.26-.3.53-.45-49.12-.23-48.44l-12.2.15c.15-.68.22,48.81,0,48.28h-.79Z"></path>
  <polygon class="cls-3" points="20.61 13.24 20.61 3.61 32.81 3.61 32.81 13.24 20.61 13.24"></polygon>
  <path class="cls-4" d="m36.3,1.49h-2.35c-.3,0-.45-.23-.45-.53s.15-.45.45-.45h2.35c.3,0,.45.23.45.53s-.15.45-.45.45Zm-6.14,0h-2.43c-.3,0-.45-.23-.45-.53s.15-.45.45-.45h2.43c.3,0,.45.23.45.53s-.23.45-.45.45Zm-6.22,0h-2.43c-.3,0-.45-.23-.45-.53s.15-.45.38-.45h2.43c.3,0,.53.23.53.53s-.23.45-.45.45Zm-6.29,0h-2.43c-.3,0-.45-.23-.45-.53s.23-.45.45-.45h2.43c.3,0,.45.23.45.53s-.15.45-.45.45Zm-6.22,0h-2.43c-.3,0-.53-.23-.53-.45s.23-.53.53-.53h2.43c.3,0,.45.23.45.53s-.15.45-.45.45Zm-6.22,0h-2.43c-.3,0-.53-.23-.53-.45s.23-.53.53-.53h2.43c.3,0,.45.23.45.53s-.15.45-.45.45Z"></path>
  <path class="cls-4" d="m52.08,16.65h-2.43c-.3,0-.53-.23-.53-.53s.23-.53.53-.53h2.43c.3,0,.53.23.53.53s-.23.53-.53.53Zm-6.22,0h-2.43c-.3,0-.53-.23-.53-.53s.23-.53.53-.53h2.43c.3,0,.53.23.53.53s-.3.53-.53.53Zm-6.22,0h-2.43c-.3,0-.45-.23-.45-.53s.23-.53.45-.53h2.43c.3,0,.45.23.45.53s-.23.53-.45.53Zm-6.29,0h-2.43c-.3,0-.45-.23-.45-.53s.23-.53.45-.53h2.43c.3,0,.45.23.45.53s-.15.53-.45.53Zm-6.22,0h-2.43c-.3,0-.45-.23-.45-.53s.15-.45.45-.45h2.43c.3,0,.45.23.45.53s-.15.45-.45.45Zm-6.22,0h-2.43c-.3,0-.45-.23-.45-.53s.23-.53.45-.53h2.43c.3,0,.45.23.45.53s-.15.53-.45.53Z"></path>
  <path class="cls-4" d="m37.97,22.56c-.08,0-.23,0-.3-.08-.15-.15-.15-.38,0-.53l3.41-3.49c.15-.15.38-.15.53,0s.15.38,0,.53l-3.41,3.49s-.08.08-.23.08Z"></path>
  <path class="cls-4" d="m37.97,25.97c-.08,0-.23,0-.3-.08-.15-.15-.15-.38,0-.53l6.82-6.67c.15-.15.38-.15.53,0s.15.38,0,.53l-6.82,6.67c0,.08-.08.08-.23.08Z"></path>
  <path class="cls-4" d="m37.81,29.61c-.08,0-.23,0-.3-.15-.15-.15-.15-.38,0-.53l10.61-10.23c.15-.15.38-.15.53,0,.15.15.15.38,0,.53l-10.54,10.31c-.08,0-.15.08-.3.08Z"></path>
  <path class="cls-4" d="m39.03,32.11c-.08,0-.23,0-.3-.08-.15-.15-.15-.38,0-.53l10.84-10.76c.15-.15.38-.15.53,0s.15.38,0,.53l-10.84,10.69c-.08.08-.15.15-.23.15Z"></path>
  <path class="cls-4" d="m42.67,32.11c-.08,0-.23,0-.3-.08-.15-.15-.15-.38,0-.53l7.35-7.2c.15-.15.38-.15.53,0s.15.38,0,.53l-7.35,7.2s-.15.08-.23.08Z"></path>
  <path class="cls-4" d="m46.23,32.11c-.08,0-.23,0-.3-.08-.15-.15-.15-.38,0-.53l3.79-3.71c.15-.15.38-.15.53,0s.15.38,0,.53l-3.79,3.71c-.08,0-.15.08-.23.08Z"></path>
  <path class="cls-4" d="m49.41,32.11c-.08,0-.15,0-.23-.08-.15-.15-.15-.38,0-.53l.61-.68c.15-.15.38-.15.53,0s.15.38,0,.53l-.61.68c-.08,0-.23.08-.3.08Z"></path>
  <path class="cls-4" d="m55.1,8.38c-.08,0-.23-.08-.3-.15-.15-.15-.15-.38,0-.53l2.96-2.88c.15-.15.38-.15.53,0,.23.23.23.45.08.61l-2.96,2.88c-.08.08-.15.08-.3.08Z"></path>
  <path class="cls-4" d="m55.1,11.95c-.08,0-.23-.08-.3-.15-.15-.15-.15-.38,0-.53l6.82-6.52c.15-.15.38-.15.53,0s.15.38,0,.53l-6.82,6.52c-.08.08-.15.15-.23.15Z"></path>
  <path class="cls-4" d="m55.1,15.66c-.08,0-.23-.08-.3-.15-.15-.15-.15-.38,0-.53l10.61-10.23c.15-.15.38-.15.53,0s.15.38,0,.53l-10.54,10.23c-.08.08-.15.15-.3.15Z"></path>
  <path class="cls-4" d="m55.02,19.22c-.08,0-.23-.08-.3-.15-.15-.15-.15-.38,0-.53l11.9-11.52c.15-.15.38-.15.53,0s.15.38,0,.53l-11.83,11.52c-.08.08-.15.15-.3.15Z"></path>
  <path class="cls-4" d="m55.25,22.86c-.08,0-.23-.08-.3-.15-.15-.15-.15-.38,0-.53l11.75-11.52c.15-.15.38-.15.53,0s.15.38,0,.53l-11.67,11.52c-.08.08-.23.15-.3.15Z"></path>
  <path class="cls-4" d="m55.25,26.35c-.08,0-.23,0-.3-.15-.15-.15-.15-.38,0-.53l11.98-11.75c.15-.15.38-.15.53,0s.15.38,0,.53l-11.9,11.83c-.08.08-.23.08-.3.08Z"></path>
  <path class="cls-4" d="m55.25,29.76c-.08,0-.23,0-.3-.15-.15-.15-.15-.38,0-.53l11.98-11.75c.15-.15.38-.15.53,0s.15.38,0,.53l-11.9,11.75c-.08.08-.23.15-.3.15Z"></path>
  <path class="cls-4" d="m57.3,31.35c-.08,0-.23,0-.3-.08-.15-.15-.15-.38,0-.53l9.93-9.85c.15-.15.38-.15.53,0s.15.38,0,.53l-9.93,9.85s-.08.08-.23.08Z"></path>
  <path class="cls-4" d="m61.01,31.35c-.08,0-.23,0-.3-.08-.15-.15-.15-.38,0-.53l6.29-6.22c.15-.15.38-.15.53,0s.15.38,0,.53l-6.29,6.22s-.15.08-.23.08Z"></path>
  <path class="cls-4" d="m64.8,31.35c-.08,0-.23,0-.3-.08-.15-.15-.15-.38,0-.53l2.5-2.5c.15-.15.38-.15.53,0s.15.38,0,.53l-2.5,2.5s-.08.08-.23.08Z"></path>
  <path class="cls-4" d="m.9,54.7c-.38,0-.76-.3-.76-.76s.3-.76.76-.76l69.21-.45h0c.38,0,.76.3.76.76s-.3.76-.76.76l-69.21.45h0Z"></path>
  <circle class="cls-1" cx="71.1" cy="49.72" r="12.99"></circle>
  <path class="cls-4" d="m71.1,63.48c-7.59,0-13.76-6.41-13.76-14s6.17-13.52,13.76-13.52,13.76,6.17,13.76,13.76-4.96,14.22-13.76,13.76Zm-.3-26.14c-6.74,0-11.92,5.64-11.92,12.38s5.91,12.71,12.65,12.71,12.13-6.06,12.13-12.79-6.13-12.29-12.86-12.29Z"></path>
  <polygon class="cls-2" points="71.22 57.6 63.42 53.97 64.97 50.73 69.67 52.89 75.85 41.78 79.01 43.48 71.22 57.6"></polygon>
  <path class="cls-4" d="m71.52,58.46l-9.24-4,2.19-4.79,5.01,2.64,6.19-11.14,3.79,1.93-7.93,15.36Zm-7.49-4.7l6.99,3.25,7.43-13.58-2.56-1.28-6.03,11.34-4.68-2.15-1.15,2.42Z"></path>
</svg>
