<?xml version="1.0" encoding="UTF-8"?>
<svg xmlns="http://www.w3.org/2000/svg" id="Layer_1" viewBox="0 0 128.36 65">
  <defs>
    <style>.cls-1{fill:#fff;}.cls-2{fill:#fbe0c2;}.cls-3{fill:#17303b;}.cls-4{fill:#162f3b;}</style>
  </defs>
  <path class="cls-1" d="m5.14,62.74h39.33c0-10.86-8.81-19.81-19.67-19.81-10.86,0-19.67,8.95-19.67,19.81Z"></path>
  <rect class="cls-4" x="23.84" y="36.86" width="2.04" height="6.36" transform="translate(49.72 80.08) rotate(-180)"></rect>
  <path class="cls-4" d="m5.52,62.51c13.2-.72,37.39.04,37.39.04.04-5.1-1.24-9.3-4.94-12.76-12.34-11.76-30.11-4.37-31.14,12.33l-1.31.39Zm-.44.28c-.88-10.92,8-20.86,19.72-20.66s20.03,9.7,19.9,20.61c0,0,0,.23,0,.23h-.24c-13.06.41-26.37.57-39.39-.18h0Z"></path>
  <path class="cls-4" d="m48.39,64.53H1.25c-.4,0-.72-.35-.67-.75l-.02-2c.04-.34.32-.59.66-.59l47.35-.68c.38,0,.68.3.68.67l-.19,2.67c0,.37-.3.67-.67.67Z"></path>
  <path class="cls-4" d="m29.81,38.81h-10.28c-.4,0-.72-.35-.67-.75l.18-2.53c.04-.34.32-.59.66-.59l10.05.09c.38,0,.68.3.68.67l.05,2.44c0,.37-.3.67-.67.67Z"></path>
  <path class="cls-2" d="m123.82,31.58s-18.49-2.94-28.54-.05c-10.05,2.89-14.66,4.5-20.28,7.37-2.71,1.38-5.53,1.92-6.71.2-1.59-2.32-.74-6.22,3.5-9.19,0,0-4.95,4.87-8.46,3.33-2.89-1.26-5.71-4.59,5.7-11.36,0,0-16.51,11.33-22.66,13.44-6.15,2.11-11.7-1.05,1.4-10.88,13.1-9.84,22.76-16.68,36.28-20.05s30.24-3.02,43.27.28"></path>
  <path class="cls-3" d="m123.95,31.62c-8.45-.92-17.09-1.83-25.51-.49-5.53,1.2-10.94,3.13-16.22,5.13-1.9.76-3.99,1.68-5.88,2.52-2.01.94-4.21,1.77-6.55,1.29-1.62-.33-2.91-1.78-3.08-3.48.02-3.15,2.86-5.45,4.89-7.44,0,0,.57.8.57.8-2.24,1.75-6.01,4.9-9.01,3.49-2.26-1.21-3.3-3.48-1.71-5.73,1.9-2.74,4.88-5.29,7.65-7.02,0,0,.18,1.16.18,1.16-6.87,4.63-13.65,9.43-21.12,13.09-4.15,2.23-11.74,2-7.7-4.47,2.44-3.47,5.98-5.95,9.27-8.46,8.8-6.64,17.99-13.2,28.55-16.79C88.84,1.66,100.39-.08,111.42.71c5.35.45,11.37,1.06,16.46,2.58.13.04-.7,2.89-.7,2.89-5.35-1.04-10.9-2.22-16.4-2.43-10.92-.46-22.03.51-32.37,4.14-5.16,1.77-11.04,4.19-15.69,7.07-6.82,4.47-10.79,6.82-16.96,12.16-2.53,2.24-6.1,7.69.24,6.28,1.87-.42,6.82-2.92,10.36-4.82,4.74-2.78,8.21-4.79,12.78-7.86l.17,1.17c-2.48,2.28-6.14,4.1-6.01,7.08.04,1.01.56,2.17,1.94,2.58.95.28,3.44.07,6.41-2.43l.55.86c-1.72,1.8-3.22,2.63-3.19,5.22.48,2.96,3.25,3.37,5.56,2.45,7.82-3.49,15.42-8.15,23.89-9.55,9.01-1.49,21.9.06,25.72,1.36.08.03-.21,2.18-.21,2.18Z"></path>
</svg>
