<?xml version="1.0" encoding="UTF-8"?>
<svg xmlns="http://www.w3.org/2000/svg" id="Layer_1" viewBox="0 0 149.02 65">
  <defs>
    <style>.cls-1{fill:#fff;}.cls-2{fill:#162f3b;}.cls-3{fill:#d8ea53;stroke:#162f3b;stroke-miterlimit:10;stroke-width:1.07px;}</style>
  </defs>
  <polygon class="cls-2" points="83.57 65 79.45 50.25 81.82 49.48 85.94 64.22 83.57 65"></polygon>
  <path class="cls-2" d="m64.34.39c2.46-1.17,5.26.53,7.11,2.12,3.93,3.32,5.96,8.06,7.77,12.69,3.95,8.89,8.15,18.95,5.93,28.85-.58,2.38-1.83,5.35-4.48,5.92,0,0-.55-1.36-.55-1.36,2.17-1.18,3.12-2.61,3.42-4.85.42-4.74-.21-9.56-.98-14.26-.96-4.73-1.78-9.64-3.95-14.02-1.07-2.2-2.5-4.2-3.88-6.17-2.46-3.22-5.76-9.02-10.31-8.73,0,0-.07-.2-.07-.2h0Z"></path>
  <path class="cls-1" d="m55.7,40.15l53.96-7.99c.26-.04.44-.28.4-.55l-4.11-26.24c-.04-.26-.28-.44-.54-.4-5.26.8-53.3,7.61-53.55,8.22-.29.68,3.43,26.59,3.81,26.95h.03Z"></path>
  <path class="cls-2" d="m76.32,36.03c10.71-1.25,21.83-2.83,32.57-4.14,0,0,.64-.08.64-.08h.1c.05-.02.09-.07.09-.13h0s0-.05,0-.05v-.08s-.05-.32-.05-.32c-1.16-8.53-2.61-17.33-4.14-25.8-17.26,2.93-34.9,5.4-52.16,8.16-.25.04-.49.16-.71.21-.01,0,3.37,21.32,4.04,24.6,0,.03,0-.02,0,0,0,0,12.55-1.56,19.63-2.38Zm-20.61,4.2h-.03s-.04.01-.04.01c-.03-.04-.06-.08-.08-.13-.05-.11-.1-.42-.14-.55-.5-2.56-1.19-6.87-1.65-9.48-.85-5.07-1.81-10.11-2.49-15.21-.06-.53-.15-1.08-.14-1.64,0-.03,0-.03,0-.09.01-.07.03-.13.05-.19,0-.11.35-.44.32-.38.06-.03.11-.06.12-.06,1.15-.39,2.35-.54,3.52-.78,6.52-1.18,13.72-2.27,20.27-3.2,9.56-1.34,21.69-3.55,31.22-4.7.03,0,.16-.02.26-.01.1,0,.21.03.3.08.19.08.35.23.44.42.09.13.09.3.11.45.02.17.11.76.13.95.1.78.42,2.99.53,3.81.97,6.99,2.09,14.24,3.33,21.21.12.43-1.47,1.64-1.91,1.78-.07.03-.74.14-.84.15-10.67,1.85-22.22,3.8-32.95,4.99-6.69.78-13.66,1.58-20.34,2.59h0Z"></path>
  <path class="cls-2" d="m54.74,16.15c-.09,0-.17,0-.22-.02-.28-.05-.47-.32-.42-.61.05-.28.33-.47.61-.42.57.11,5.22-.77,9.37-1.64.28-.06.56.12.62.41.06.28-.12.56-.41.62-1.93.4-8.05,1.66-9.55,1.66Z"></path>
  <path class="cls-2" d="m55.29,18.69c-.19,0-.37-.11-.46-.3-.13-.26,0-.58.25-.71.36-.18,4.59-.89,8.08-1.46.29-.05.55.15.6.43.05.29-.15.55-.43.6-2.8.46-7.39,1.23-7.82,1.38-.07.04-.15.05-.22.05Z"></path>
  <path class="cls-2" d="m65,16.84c-.25,0-.47-.18-.52-.44-.05-.29.15-.55.43-.6l4.78-.8c.29-.04.56.14.6.43.05.29-.15.55-.43.6l-4.78.8s-.06,0-.09,0Z"></path>
  <path class="cls-2" d="m55.74,21.69c-.25,0-.46-.17-.51-.42-.06-.28.13-.56.41-.61l9.98-1.96c.28-.06.56.13.61.41.06.28-.13.56-.41.61l-9.98,1.96s-.07.01-.1.01Z"></path>
  <path class="cls-3" d="m96.72,9.24c.99-.27,5.58-.93,5.58-.93l.93,6.63-5.3.74c-.12-.88-1.2-6.44-1.2-6.44Z"></path>
  <path class="cls-2" d="m72.58,33.41c-.21,0-.25-.03-.29-.06l-.17-.13-.03-.21c-.11-.72-1.21-6.37-1.22-6.43l-.05-.27.19-.2c.44-.46,25.2-3.82,25.64-3.82h0l.35.08,1.24,7.6-.51.08c-19.78,2.97-24.28,3.36-25.15,3.36Zm-.08-6.42c.23,1.16.77,3.99.99,5.21,2.47-.3,14.75-2.11,23.36-3.41l-.77-5.46c-2.73.33-20.36,3.05-23.59,3.65Z"></path>
  <path class="cls-1" d="m89.19,45.47c29.19,4.04,53.24,9.79,53.24,9.79.26.05.51-.12.56-.38l4.7-26.14c.05-.26-.13-.48-.38-.55-21.72-6.72-52.86-10.24-53.29-9.75-.49.55-5.46,26.25-5.22,26.71,0,0,.06.28.4.33Z"></path>
  <path class="cls-2" d="m90.89,44.39c6.1,1.05,11.84,1.96,18.36,3.15,10.24,1.85,31.61,6.11,31.59,6.1.64.11.9.1,1.02-.37,0-.04,4.35-24.07,4.35-24.07,0,0,.07-.24-.05-.28-9.67-2.92-18.64-5.02-28.59-6.67-7.67-1.19-15.56-2.57-23.28-3.15,0,0-.08,0-.08,0,0,0,0,0,.02,0,0,0,.05-.01.09-.03.14-.06.28-.22.28-.24-1.4,5.09-3.91,24.62-3.9,24.54-.04.39-.25.95.2,1.03Zm-1.71,1.16c-.21-.03-.42-.17-.47-.39,0,0,0,.02,0,.02-.03-.07-.01-.08-.02-.12,0-.13.04-.43.05-.57.04-.38.23-1.5.28-1.9.97-5.76,1.93-11.95,2.93-17.68.4-2.17.73-4.35,1.29-6.51.08-.29.27-.62.65-.69,1.22-.14,2.42.05,3.62.12,6.82.6,13.59,1.59,20.33,2.78,9.99,1.82,19.95,3.93,29.59,7.15.45.14.79.65.64,1.12,0,0-.03.16-.03.16l-.12.63c-.16.77-.58,2.96-.75,3.76-1.42,7.11-2.71,14.24-3.84,21.4-.04.51-.53.93-1.1.76,0,0-.32-.07-.32-.07-10.85-2.21-22.24-4.28-33.07-6.56-6.58-1.35-13-2.49-19.67-3.42h0Z"></path>
  <path class="cls-2" d="m106.84,23.83s-.06,0-.09,0c-.05-.01-5.49-1.2-10.93-1.5-.22-.01-.47-.4-.45-.62.01-.22.25-.5.47-.49,5.5.3,11.01,1.5,11.06,1.52.22.05.46.41.42.63-.04.19-.29.47-.47.47Z"></path>
  <path class="cls-2" d="m102.58,25.56s-.05,0-.07,0c-.05,0-4.86-.89-6.99-.91-.22,0-.47-.38-.47-.6,0-.22.32-.49.54-.48,2.2.02,6.93.88,7.13.92.22.04.41.4.37.62-.04.19-.32.46-.51.46Z"></path>
  <path class="cls-2" d="m109.16,26.63s-.04,0-.07,0l-4.78-.81c-.22-.04-.44-.41-.4-.63.04-.22.39-.47.61-.44l4.78.81c.22.04.33.42.29.64-.03.19-.24.44-.44.44Z"></path>
  <path class="cls-2" d="m105.85,28.79s-.05,0-.07,0c-.05-.01-5.48-1.01-10.97-1.48-.22-.02-.34-.52-.32-.74.02-.22.43-.52.65-.5,5.52.47,10.59,1.35,10.64,1.36.22.04.48.37.46.74,0,.2-.21.61-.4.61Z"></path>
  <path class="cls-3" d="m137.05,29.16c1.03.07,5.58.94,5.58.94l-1.29,6.57-5.25-1.03c.17-.88.97-6.48.97-6.48Z"></path>
  <path class="cls-2" d="m132.07,48.99s-9.38-2.53-24.5-4.74c-.15-.02-.29-.11-.38-.25-.48-.74.4-4.37.97-6.47l.05-.17.16-.08c.31-.16,5.03.31,8.46.8,4.32.61,10.66,1.74,16.38,3.66l.32.11-.05.33c-1.02,6.42-1.4,6.81-1.4,6.81Zm-23.32-5.86c13.78,2.02,20.72,4.08,22.56,4.6.22-.83.53-2.94.9-5.27-9.92-3.27-20.65-3.97-22.63-4.05-.6,2.25-.93,4.08-.83,4.73Z"></path>
  <path class="cls-2" d="m62.88,1.59c-10.22,3.28-20.46,9.2-28.21,18.67-.46.55-1.15,1.49-1.59,2.06-7.59,10.38-11.81,17.94-25.17,19.43-1.31.16-2.62.28-3.93.38-.4.04-.84.02-1.13.29-.51.59.99,2.38,2.75,3.94,10,8.9,22.87,12.53,35.01,13.2,13.99.83,24.76-2.82,36.71-10.05,0,0,3.77.42,3.77.42-8.81,5.77-18.94,9.66-29.44,10.86-14.02,1.64-28.52-1.52-40.71-8.59-3.04-1.79-5.95-3.82-8.46-6.32-.87-.91-3.32-3.42-2.17-4.67.42-.36.95-.33,1.36-.36,1.31-.07,2.62-.18,3.92-.33,13.45-1.37,17.89-7.45,27.17-19.89,6.84-9.17,13.96-13.63,21.91-17.37,1.59-.75,7.65-2.88,10.41-3.12l-2.19,1.46Z"></path>
  <path class="cls-2" d="m42.57,18.63c1.93,12.9,4.88,26.38,13.19,36.79-9.15-9.49-12.46-23.97-13.19-36.79h0Z"></path>
  <path class="cls-2" d="m34.89,26.83c.4,3.91.85,7.82,1.59,11.67,1.78,6.32,5.3,11.93,9.17,17.2,0,0-.06.06-.06.06-5.08-4.43-7.82-10.76-9.37-17.19-.32-1.11-.79-2.69-1.06-3.83-.45-2.53-.84-5.51-.27-7.91h0Z"></path>
  <path class="cls-2" d="m26.64,31.9c-.07,9.16,4.21,17.7,9.87,24.68-.81-.8-1.62-1.61-2.39-2.46-5.18-6.02-8.61-14.19-7.49-22.22h0Z"></path>
  <path class="cls-2" d="m19.31,38.55c.45,6.06,2.62,11.74,5.92,16.82,0,0-.06.06-.06.06-4.08-4.43-6.73-10.98-5.86-16.87h0Z"></path>
  <path class="cls-2" d="m12.41,42.35c6.96.3,13.42-3.47,18.75-7.6,3.98-3.3,7.66-7.1,11.92-10.1,1.44-.97,2.97-1.92,4.69-2.28-1.65.55-3.07,1.57-4.43,2.63-4.1,3.23-7.6,7.07-11.67,10.37-5.44,4.14-12.2,7.88-19.25,6.98h0Z"></path>
  <path class="cls-2" d="m9.94,45.62c7.55.67,16.09.45,22.32-4.34,4.53-3.64,9.22-7.58,14.85-9.48,1.87-.64,3.78-1.11,5.72-1.41-3.8.96-7.46,2.4-10.73,4.5-3.36,2.02-6.23,4.67-9.37,7.02-6.44,4.87-15.17,4.94-22.79,3.71h0Z"></path>
  <path class="cls-2" d="m14.39,49.06c6.79,1.54,14.31,1.86,20.62-1.42,4.75-2.35,9.6-4.82,14.84-5.97,1.74-.39,3.5-.68,5.27-.86-7.06,1.29-13.39,4.37-19.76,7.55-6.46,3.29-14.23,2.82-20.96.7h0Z"></path>
  <path class="cls-2" d="m17.52,52.5c6.22.78,12.62,1.78,18.84.75,6.08-1.51,12.34-3.7,18.71-3.27-6.38.34-12.35,2.61-18.55,4.02-6.38,1-12.77-.21-18.99-1.5h0Z"></path>
  <path class="cls-2" d="m81.64,49.83c-4.4,3.37-10.06-3.99-12.37-7.24-6.62-9.92-11.26-24.17-9.13-36.1.56-2.36,1.64-5.32,4.23-6.01-.06.03,1.35.11,1.29.13-4.51,1.03-4.7,9.38-4.41,13.37,1.21,9.72,4.4,19.29,9.36,27.74,1.99,3.06,6.45,7.74,10.72,6.1.18-.07.31,2.01.31,2.01Z"></path>
</svg>
