<?xml version="1.0" encoding="UTF-8"?>
<svg xmlns="http://www.w3.org/2000/svg" id="Layer_1" viewBox="0 0 80.63 69.1">
  <defs>
    <style>.cls-1{fill:#fff;}.cls-2{fill:#d8ea53;}.cls-3{fill:#162f3b;}</style>
  </defs>
  <path class="cls-2" d="m43.04,15.77s-9.56-7.1-18.18,1.9c0,0,10.04,2.18,13.36,7.18"></path>
  <path class="cls-3" d="m37.8,25.13c-3.17-4.77-12.95-6.94-13.05-6.97l-.87-.19.62-.64c8.82-9.21,18.74-2.03,18.84-1.95l-.89,1.25c-.37-.27-7.51-6.8-15.53.82,2.56.66,8.88,2.85,11.72,7.13l-.83.55Z"></path>
  <path class="cls-2" d="m56.61,33.3s3.82,7.78-6.16,16.17c0,0,1.26-10.06-4.39-14.17"></path>
  <path class="cls-3" d="m49.35,51.35l.16-1.26c.01-.1,1.6-10.5-3.74-14.39l1.63-.84c4.67,3.4,3.79,10.53,3.65,13.42,8.42-7.72,4.55-14.52,4.51-14.6l1.5-.6c.04.08,1.01,2.11.71,5.21-.28,2.82-1.53,7.41-6.82,11.84l-1.61,1.22Z"></path>
  <path class="cls-1" d="m80.37,2.05s-.01-.1-.02-.14c-.01-.07-.03-.14-.04-.2-.02-.07-.03-.13-.05-.18-.01-.04-.03-.08-.04-.12-.04-.09-.07-.17-.12-.23-.04-.05-.1-.1-.17-.15-.04-.03-.09-.06-.14-.09-.03-.02-.06-.03-.09-.05-1.59-.88-14.15-2.63-26.91,5.73-12.67,8.3-15.66,21.44-15.66,21.44l5.5,7.34s13.62.96,25.47-8.47c14.07-11.2,12.49-23.28,12.26-24.86Z"></path>
  <path class="cls-3" d="m79.05,3.32c-.12-1.33-1.62-1.41-2.66-1.63-3.51-.49-6.32-.02-9.78.7-13.8,2.83-25.26,12.1-28.88,25.78,0,0-.11-.51-.11-.51l5.57,7.29-.51-.28c2.24.07,4.58-.58,6.84-.97,14.79-2.27,30.52-15.39,29.52-30.4h0Zm1.41-1.28c1.24,9.58-4.02,18.94-11.24,24.96-7.3,6.25-17.04,9.4-26.62,9.08,0,0-.32-.02-.32-.02l-.19-.26-5.44-7.39-.18-.24.07-.26C40.43,13.94,52.75,3,67.02.63c4.07-.67,8.36-1.02,12.38.04.66.19,1.01.69,1.05,1.37h0Z"></path>
  <path class="cls-1" d="m39.43,39.53l-6.81-8.97c-.2-.25-.13-.63.12-.83l3.02-2.32c.25-.2.63-.13.83.12l6.81,8.97c.2.25.13.63-.12.83l-3.02,2.32c-.25.2-.63.13-.83-.12Z"></path>
  <path class="cls-3" d="m39.38,39.57c-1.7-2.25-3.94-4.07-5.47-6.47,0,0-1.15-1.79-1.15-1.79-.17-.34-.55-.64-.51-1.1.02-.25.14-.47.33-.63,1.01-.71,2.5-1.78,3.43-2.6.09-.1.4-.32.65-.29.27,0,.51.12.7.33.95,1.05,1.79,2.04,2.67,3.15,1.52,1.88,3.05,3.76,4.34,5.8.31.74-.32,1.16-1.23,1.83-.85.64-1.85,1.22-2.72,1.83-.27.27-.8.27-1.03-.07h0Zm.01-1.77c.59.61.59.58,1.04.24.68-.52,1.76-1.2,2.39-1.81.02-.04.03-.1,0-.13-.47-.73-6.04-8.1-6.24-8.03-.35.13-2.29,1.61-2.94,2.18-.08.08-.13.2-.11.3-.01.14,5.86,7.24,5.86,7.24Z"></path>
  <path class="cls-3" d="m65.59,16.81c-.77,0-1.53-.2-2.22-.58-1.07-.6-1.84-1.57-2.18-2.75-.34-1.18-.19-2.42.4-3.49,1.23-2.21,4.03-3,6.24-1.78,1.07.6,1.84,1.57,2.18,2.75s.19,2.42-.4,3.49c-.6,1.07-1.57,1.84-2.75,2.18-.42.12-.84.18-1.26.18Zm.43-7.65c-1.23,0-2.42.65-3.06,1.79-.45.82-.56,1.61-.31,2.5.26.9,1.55,2.55,3.9,2.12.92-.17,1.64-.85,2.1-1.66.45-.82.56-1.76.31-2.66-.26-.9-1.38-2.11-2.94-2.1Z"></path>
  <path class="cls-3" d="m34.44,32.35c-.35.06.58.88.22.92-3.35.35-5.62.4-8.52,2.47,0,0,1.89-.13,2.83,1.39-2.55,1.4-4.57,3.81-4.76,6.39,0,0,1.01.07,1.66-.1,2.18-.61,3.93-1.92,5.93-2.97,1.11,1.33.42,3.52.42,3.52,2.89-2.49,3.28-4.93,4.49-8.04.09-.23.71.92.79.7-.21.91-.5,1.8-.85,2.67-1.14,2.88-3.04,5.68-6.07,6.81,0,0,.27-.78.27-.78.31-.97.79-2.55.3-3.41,0,0,.56.12.56.12-1.96,1.05-3.91,2.15-6.08,2.69-1.37.34-2.75.09-2.75.09-.47-3.48,2.01-6.45,4.85-8.08,0,0-.14.64-.14.64-.2-.28-.85-.44-1.42-.48-.82-.08-1.71.02-2.53.12,1.92-3.92,6.98-4.34,10.82-4.64h0Z"></path>
  <path class="cls-3" d="m24.91,49.83c-4.77,4.27-6.54,10.58-7.98,16.59-.19.89-.37,1.78-.63,2.68-.1-.92-.1-1.85-.17-2.77-.51-6.81,1.2-13.46,8.78-16.5h0Z"></path>
  <path class="cls-3" d="m20.51,47.02c-6.13,4.17-11.07,9.74-15.12,15.89-.6.88-1.13,1.8-1.77,2.68.31-1.03.73-2.03,1.07-3.06,2.4-7.29,6.39-12.8,15.83-15.51h0Z"></path>
  <path class="cls-3" d="m19.05,43.37c-5.48.95-10.14,4.07-14.6,7.19-1.63,1.14-4.44,3.39-4.44,3.39,3.66-6.97,9.64-12.57,19.05-10.58h0Z"></path>
  <path class="cls-3" d="m65.5,1.47c.63.07,1.23.18,1.81.32,7.35,1.87,10.82,9.92,8.62,16.7,0,0-.11-.01-.11-.01.87-7.66-4.29-13.46-10.32-17.01h0Z"></path>
</svg>
