<?xml version="1.0" encoding="UTF-8"?>
<svg xmlns="http://www.w3.org/2000/svg" id="Layer_1" viewBox="0 0 99.84 60.54">
  <defs>
    <style>.cls-1{fill:#fff;}.cls-2{fill:#d8ea53;}.cls-3{fill:#162f3b;}</style>
  </defs>
  <path class="cls-3" d="m60.33.04c.79,6.45.57,12.92.16,19.38-.03,6.46.64,12.92.52,19.38-.07,4.31-.23,8.61-.68,12.92h-.14c-1.24-10.76-.35-21.53-.16-32.31-.2-4.3-.57-8.61-.32-12.92.08-2.15.22-4.31.47-6.46h.14Z"></path>
  <path class="cls-3" d="m49.94.07c-2.49,5.58-5.86,10.65-9.38,15.61-3.2,5.16-5.95,9.95-9.22,15.07-2.17,3.41-4.28,7.52-6.77,10.74l-.12-.07c4.22-9.27,9.76-17.72,15.22-26.26,1.95-3.55,4.24-6.91,6.58-10.23,1.12-1.69,2.3-3.34,3.57-4.93l.12.07h0Z"></path>
  <path class="cls-3" d="m75.61.04c.96,17.23.97,34.46,0,51.69-.97-17.23-.96-34.46,0-51.69h0Z"></path>
  <path class="cls-3" d="m91.69.04c1.63,17.11,1.61,34.58,0,51.69,0,0-.14,0-.14,0,.07-12.79-.33-39.18.14-51.69h0Z"></path>
  <path class="cls-2" d="m60.2,44.18c-2.95-.17-8.48,2.67-7.13,9.44,1.62,8.16,12.22,5.67,13.78,2.28,1.11-2.41,2.52-11.2-6.65-11.72Z"></path>
  <path class="cls-3" d="m59.86,59.28c-.37,0-.73-.02-1.09-.06-1.93-.23-5.22-1.04-6.12-5.56-.73-3.64.26-6.21,1.41-7.53,1.76-2.02,4.45-2.84,6.17-2.72h0c3.23.18,5.52,1.64,6.81,3.79,1.87,3.12.99,7.35.27,8.92-.91,1.97-4.27,3.17-7.44,3.17Zm.08-14.61c-1.43,0-3.51.73-4.96,2.39-1.44,1.66-1.93,3.89-1.42,6.46.74,3.71,3.31,4.77,5.34,5.01,3.31.38,6.52-1.46,7.27-3.1.62-1.35,1.66-4.98.01-7.73-1.11-1.85-3.13-2.87-6.01-3.04h0c-.07,0-.15,0-.23,0Z"></path>
  <path class="cls-2" d="m24.14,35.13c-2.93-.43-8.68,1.9-7.94,8.77.89,8.27,11.67,6.74,13.53,3.5,1.32-2.3,3.51-10.93-5.58-12.27Z"></path>
  <path class="cls-3" d="m23.37,50.5c-.68,0-1.36-.06-2.01-.2-1.9-.4-5.17-1.75-5.66-6.34-.4-3.69,1.03-5.92,2.29-7.13,1.93-1.86,4.52-2.43,6.22-2.19h0c3.2.47,5.7,1.67,6.79,3.93,1.59,3.27.16,7.51-.75,8.97-1.3,2.09-4,2.96-6.88,2.96Zm-4.69-12.95c-1.62,1.48-2.27,3.7-1.99,6.31.4,3.76,2.87,5.05,4.87,5.47,3.26.68,6.67-1.15,7.57-2.71.74-1.29,2.05-4.54.65-7.42-.94-1.94-2.83-2.77-5.69-3.19,0,0-3.25-.43-5.42,1.55Z"></path>
  <path class="cls-2" d="m96.13,58.39c2.51-1.56,5.55-7.2.41-11.83-5.86-5.28-13.25,1.27-12.59,6.05.49,3.57,4.37,10.61,12.18,5.78Z"></path>
  <path class="cls-3" d="m91.17,60.54c-.98,0-1.91-.21-2.79-.62-2.88-1.36-4.32-4.63-4.67-7.16-.38-2.74,1.38-6.09,4.42-7.7,3-1.59,6.2-1.59,8.77.73,2.7,2.43,3.07,5.42,2.91,7.15-.25,2.75-1.56,5.16-3.04,6.08h0c-1.85,1.15-3.98,1.54-5.61,1.54Zm.58-15.43c-1.05,0-2.12.27-3.16.82-2.64,1.4-4.46,4.3-4.15,6.61.26,1.9,1.64,5.19,4.35,6.46,2.03.96,4.41.6,7.07-1.04h0c1.31-.81,2.74-2.83,2.95-5.13.19-2.15-.71-4.19-2.6-5.9-1.34-1.21-2.88-1.83-4.46-1.83Z"></path>
  <path class="cls-3" d="m14.93,42.23c-6.64-2.17-12.21-7.47-14.93-13.88,0,0,.06-.04.06-.04,3.44,5.98,8.9,10.82,14.87,13.92h0Z"></path>
  <path class="cls-3" d="m23.6,42.4c-9.13-1.17-17.55-7.33-21.77-15.46-.28-.54-.55-1.09-.79-1.65l.09-.05c4.89,8.37,13.4,14.52,22.48,17.17h0Z"></path>
  <path class="cls-3" d="m21.9,36.7c-5.61-.95-10.85-4.96-12.92-10.31,0,0,.07-.04.07-.04,2.79,4.91,7.8,8.38,12.85,10.34h0Z"></path>
  <path class="cls-2" d="m69.03,54.7c1.1,2.75,6.01,6.55,11.57,2.46,6.7-4.93-.04-13.47-3.77-13.45-2.66.01-11.21,2.46-7.8,10.99Z"></path>
  <path class="cls-3" d="m82.85,48.6c.16.33.29.67.41,1.02.61,1.84,1.27,5.17-2.44,7.9-2.99,2.2-5.73,2.39-7.42,1.91-2.58-.74-4.45-2.83-5.08-4.44h0c-1.2-3-.85-5.69.55-7.77,2.03-3.01,6.06-4.1,7.77-3.91,3.66.4,4.87,2.42,6.21,5.29Zm-13.27,6.12c.61,1.3,2.15,2.88,4.27,3.48,2.11.6,4.34.1,6.45-1.45,3.05-2.24,2.92-5.02,2.28-6.96-1.05-3.16-4.09-5.29-5.89-5.28-1.49,0-5.22.61-7,3.26-1.2,1.79-1.27,4.05-.2,6.73h0c.03.07.06.14.09.21Z"></path>
  <path class="cls-1" d="m60.98,47.65c-2.38.72-3.93,2.23-4.6,4.52-.1.32-.18.65-.32.99-.08-.35-.13-.7-.16-1.06-.19-2.66,2.43-5.14,5.09-4.45h0Z"></path>
  <path class="cls-1" d="m27.35,38.65c-2.39-.7-4.51-.29-6.32,1.26-.26.21-.51.45-.82.66.12-.33.27-.66.45-.98,1.29-2.34,4.85-2.98,6.69-.94h0Z"></path>
  <path class="cls-1" d="m92.2,47.7c-2.72.88-4.41,2.65-4.88,5.42-1.14-3.01,1.81-6.11,4.88-5.42h0Z"></path>
  <path class="cls-1" d="m77.65,47.7c-2.84.32-5.56,1.3-6.28,4.22-.12.38-.18.79-.32,1.2-.08-.41-.16-.84-.17-1.27-.11-3.46,3.81-5.28,6.76-4.15h0Z"></path>
  <path class="cls-3" d="m60.35,47.2c-2.38.72-3.93,2.23-4.6,4.52-.1.32-.18.65-.32.99-.08-.35-.13-.7-.16-1.06-.19-2.66,2.43-5.14,5.09-4.45h0Z"></path>
  <path class="cls-3" d="m26.71,38.2c-2.39-.7-4.51-.29-6.32,1.26-.26.21-.51.45-.82.66.12-.33.27-.66.45-.98,1.29-2.34,4.85-2.98,6.69-.94h0Z"></path>
  <path class="cls-3" d="m91.57,47.25c-2.72.88-4.41,2.65-4.88,5.42-1.14-3.01,1.81-6.11,4.88-5.42h0Z"></path>
  <path class="cls-3" d="m77.02,47.25c-2.84.32-5.56,1.3-6.28,4.22-.12.38-.18.79-.32,1.2-.08-.41-.16-.84-.17-1.27-.11-3.46,3.81-5.28,6.76-4.15h0Z"></path>
</svg>
