<?xml version="1.0" encoding="UTF-8"?>
<svg xmlns="http://www.w3.org/2000/svg" id="Layer_1" viewBox="0 0 85 64">
  <defs>
    <style>.cls-1{fill:none;}.cls-2{fill:#fff;}.cls-3{fill:#d2b1e8;}.cls-4{fill:#17303b;}.cls-5{fill:#162f3b;}</style>
  </defs>
  <path class="cls-3" d="m36.5,61.51l15.03-.08v-5.72l-7.27-6.77c-.25-.25-.58-.25-.83,0l-6.94,6.11v6.46Z"></path>
  <path class="cls-5" d="m36.08,61.94v-7.08l7.08-6.24c.36-.36,1.01-.38,1.41.02l7.39,6.89-.04,6.65-15.84-.23Zm1.25-6.61l.03,5.68,13.27.04-.02-4.73-6.39-6.21c-.07-.07-.19-.06-.23-.01l-6.65,5.23Z"></path>
  <path class="cls-4" d="m4.79,56.37c-.25,0-.5-.17-.58-.5-.08-.25.08-.58.41-.66l79.7-15.03c.33-.08.66.17.66.5.08.33-.17.66-.5.66L4.79,56.37h0Z"></path>
  <path class="cls-2" d="m78.21,41.59l-24.61,4.71c-.17,0-.33-.08-.41-.25l-6.94-33.7c0-.17.08-.33.25-.41l24.78-4.46c.17,0,.33.08.41.25l6.77,33.53c0,.17-.08.33-.25.33Z"></path>
  <path class="cls-4" d="m78.21,41.67c-8.26,1.57-16.35,3.63-24.53,5.2-.41.08-.83-.17-.99-.5q-.08-.25-.08-.33c0-.08-.08-.58-.17-.66-1.24-6.19-2.23-12.55-3.47-18.67-.91-4.62-1.9-9.25-2.97-13.87-.08-.41-.25-.99.25-1.24,2.15-.5,5.29-1.07,7.52-1.57,4.87-.83,12.47-2.31,17.26-3.22.33-.08.74-.08.99.17.25.17.33.5.41.83l.08.5c2.23,10.32,3.88,21.23,5.78,31.63l.17.91c.08.25.17.74-.25.83h0Zm-.58-.17c.33-.08.17-.5.17-.74l-.17-.91-.41-1.82c-2.23-9.75-4.21-19.74-6.03-29.48l-.08-.5-.08-.25c0,.17.17.25.33.25s-.08,0-.17,0c-.25,0-1.98.33-2.31.41-6.85,1.24-15.03,2.97-21.8,4.05,2.15,9.66,3.8,19,5.62,28.82.08.41.83,4.05.91,4.38,0,.08.08.25,0,.17,0-.08-.17-.17-.25-.17l.5-.08c8.09-1.49,15.77-2.56,23.79-4.13h0Z"></path>
  <rect class="cls-2" x="60.29" y="35.56" width="9.17" height="8.51" transform="translate(-6.33 12.92) rotate(-10.85)"></rect>
  <path class="cls-4" d="m60.87,45.39l-1.73-9.17,9.83-1.9,1.73,9.17-9.83,1.9Zm-.74-8.59l1.49,7.6,8.18-1.57-1.49-7.6-8.18,1.57Z"></path>
  <path class="cls-4" d="m49.97,17.97l-.74-4.05,9.66-1.82.74,4.05-9.66,1.82Zm0-3.39l.5,2.64,8.26-1.57-.5-2.64-8.26,1.57Z"></path>
  <path class="cls-4" d="m50.87,24l-.74-4.05,9.66-1.82.74,4.05-9.66,1.82Zm.08-3.47l.5,2.64,8.26-1.57-.5-2.64-8.26,1.57Z"></path>
  <path class="cls-4" d="m52.11,29.45l-.74-4.05,9.66-1.82.74,4.05-9.66,1.82Zm.08-3.39l.5,2.64,8.26-1.57-.5-2.64-8.26,1.57Z"></path>
  <path class="cls-4" d="m53.35,35.31l-.74-4.05,9.42-1.65.74,4.05-9.42,1.65Zm.08-3.47l.5,2.64,8.01-1.4-.5-2.64-8.01,1.4Z"></path>
  <path class="cls-4" d="m60.95,15.99l-.74-4.05,9.66-1.82.74,4.05-9.66,1.82Zm.08-3.47l.5,2.64,8.26-1.57-.5-2.64-8.26,1.57Z"></path>
  <path class="cls-4" d="m62.19,21.6l-.74-4.05,9.66-1.82.74,4.05-9.66,1.82Zm.08-3.47l.5,2.64,8.26-1.57-.5-2.64-8.26,1.57Z"></path>
  <path class="cls-4" d="m63.68,27.3l-.74-4.05,9.33-1.82.74,4.05-9.33,1.82Zm0-3.47l.5,2.64,7.93-1.49-.5-2.64-7.93,1.49Z"></path>
  <path class="cls-4" d="m64.42,33.08l-.74-4.05,9.66-1.82.74,4.05-9.66,1.82Zm.08-3.47l.5,2.64,8.26-1.57-.58-2.64-8.18,1.57Z"></path>
  <line class="cls-1" x1="52.69" y1="43.9" x2="60.7" y2="42.33"></line>
  <rect class="cls-4" x="52.61" y="42.83" width="8.18" height=".58" transform="translate(-7.12 11.48) rotate(-10.88)"></rect>
  <line class="cls-1" x1="69.95" y1="40.85" x2="77.96" y2="39.11"></line>
  <rect class="cls-4" x="69.87" y="39.69" width="8.18" height=".58" transform="translate(-6.81 16.65) rotate(-12.28)"></rect>
  <line class="cls-1" x1="64.01" y1="35.72" x2="65.66" y2="43.82"></line>
  <rect class="cls-4" x="64.59" y="35.64" width=".58" height="8.34" transform="translate(-6.65 13.78) rotate(-11.54)"></rect>
  <path class="cls-2" d="m32.71,50.01l-22.46,4.29L2.64,11.86c0-.25.17-.5.41-.5l21.47-3.88c.25-.08.5.08.5.33l7.68,42.45"></path>
  <path class="cls-4" d="m32.71,50.1c-.08-.08-22.63,4.46-22.55,4.21-1.57-6.61-4.29-20.07-5.62-26.76-.99-5.04-1.9-10.16-2.81-15.2l-.08-.25c-.17-.74.41-1.65,1.24-1.73,5.04-.99,12.31-2.4,17.43-3.22l3.39-.58.41-.08h.25c.74-.17,1.65.41,1.73,1.24,1.57,8.59,3.39,20.23,4.79,28.99l1.9,13.54-.66.17c-1.57-10.08-5.29-32.54-7.02-42.29-.08-.25,0-.5-.33-.58-.17,0-.58.08-.83.08-4.87.91-12.06,2.23-16.85,3.06l-3.39.58c-.17.08-.66.17-.83.25-.17.17-.08.41-.08.66,1.65,9.58,6.19,31.63,8.42,41.38-.41,0,21.47-3.63,21.39-3.63l.08.17h0Z"></path>
  <path class="cls-4" d="m7.43,19.29l-.99-5.29,6.61-1.16.83,5.2-6.44,1.24Zm.08-4.62l.66,3.55,4.71-.99-.5-3.47-4.87.91Z"></path>
  <path class="cls-4" d="m9.17,26.97l-.99-5.29,6.61-1.16.99,5.29-6.61,1.16Zm.08-4.54l.66,3.47,4.87-.91-.66-3.55-4.87.99Z"></path>
  <path class="cls-4" d="m10.16,34.49l-.99-5.29,6.61-1.16.99,5.29-6.61,1.16Zm.08-4.54l.66,3.55,4.87-.91-.66-3.55-4.87.91Z"></path>
  <path class="cls-4" d="m11.73,41.51l-.99-5.29,6.61-1.16.99,5.29-6.61,1.16Zm.08-4.62l.66,3.55,4.87-.91-.66-3.55-4.87.91Z"></path>
  <path class="cls-4" d="m16.44,17.64l-.99-5.29,6.61-1.16.99,5.29-6.61,1.16Zm.08-4.62l.66,3.55,4.87-.91-.66-3.55-4.87.91Z"></path>
  <path class="cls-4" d="m18.17,25.07l-.99-5.29,6.36-1.16.99,5.29-6.36,1.16Zm.08-4.54l.66,3.55,4.54-.83-.66-3.55-4.54.83Z"></path>
  <path class="cls-4" d="m20.4,39.94l-.99-5.29,6.61-1.16.99,5.29-6.61,1.16Zm.08-4.62l.66,3.55,4.87-.91-.66-3.55-4.87.91Z"></path>
  <polygon class="cls-2" points="25.11 51.5 17.92 53.07 16.27 44.15 23.46 42.91 25.11 51.5"></polygon>
  <path class="cls-4" d="m17.59,53.48l-1.73-9.75,8.01-1.32,1.73,9.42-8.01,1.65Zm-.83-9l1.4,7.85,6.52-1.16-1.57-7.76-6.36,1.07Z"></path>
  <path class="cls-4" d="m.58,10.29C.33,10.29.08,10.12,0,9.79,0,9.54.17,9.3.5,9.21l24.36-4.71c.33-.08.58.17.66.41.08.33-.17.58-.41.66L.74,10.29h-.17Z"></path>
  <path class="cls-4" d="m.83,11.86c-.33,0-.5-.25-.58-.5-.08-.33.17-.58.41-.66l25.93-4.62c.33-.08.58.17.66.41.08.33-.17.58-.41.66L.91,11.86h-.08Z"></path>
  <path class="cls-4" d="m9.91,51.83c-.17,0-.25-.08-.33-.25,0-.17,0-.58.17-.58l5.29-1.24c.17,0,.41.17.41.33,0,.25-.08.41-.25.41l-5.29,1.32h0Z"></path>
  <path class="cls-4" d="m27.01,47.87c-.17,0-.25-.08-.33-.25-.08-.33,0-.5.17-.5l4.87-.91c.17,0,.41.25.41.41s-.08.33-.25.33l-4.87.91c.08,0,0,0,0,0Z"></path>
  <path class="cls-4" d="m19.49,32.92l-.99-5.29,6.61-1.16.99,5.29-6.61,1.16Zm.08-4.62l.66,3.55,4.87-.91-.66-3.55-4.87.91Z"></path>
</svg>
