<?xml version="1.0" encoding="UTF-8"?>
<svg xmlns="http://www.w3.org/2000/svg" id="Layer_1" viewBox="0 0 211.48 116.08">
  <defs>
    <style>.cls-1{fill:#fff;}.cls-2{fill:#17303b;}.cls-3{fill:#162f3b;}</style>
  </defs>
  <polygon class="cls-1" points="68.13 114.89 68.97 7.75 3.46 28.22 3.46 105.33 68.13 114.89"></polygon>
  <path class="cls-3" d="m69.41,116.08L3.01,105.71V27.9L69.41,7.15v108.94ZM4.86,103.86l62.82,9.92.03-104.66L4.61,28.6l.25,75.26Z"></path>
  <polygon class="cls-1" points="69.19 7.33 68.98 .61 .32 25.34 .32 29.26 69.19 7.33"></polygon>
  <path class="cls-3" d="m67.45,2.25L.84,26.03l.12,1.83S44.62,14.29,67.67,7.49l-.22-5.24Zm1.55,5.53C46.15,15.34,23.08,22.72,0,29.63v-.41s.04-3.92.04-3.92v-.19s.18-.06.18-.06c10.19-3.55,24.39-8.6,34.31-12.41C45.92,8.36,68.52,0,68.52,0l.48,7.78h0Z"></path>
  <polygon class="cls-1" points="68.97 7.75 68.97 .57 211.04 35.1 211.04 38.47 68.97 7.75"></polygon>
  <path class="cls-3" d="m211.48,39.02l-.54-.12L68.52,8.11V0l.55.13,142.41,34.62v4.27ZM70.33,7.37l140.26,30.54v-2.47L70.22,2.18l.11,5.19Z"></path>
  <polygon class="cls-1" points="68.97 115.57 68.97 68.88 68.97 7.75 208.48 37.93 208.48 100.02 68.97 115.57"></polygon>
  <path class="cls-3" d="m68.88,115.94c-.23-34.54-.43-74.23-.3-108.67,34.73,7.81,105.18,22.93,139.99,30.31,0,0,.29.06.29.06v.3c.03,15.47.13,46.62.11,62.09,0,0,0,.42,0,.42l-.42.05c-39.46,4.6-99.16,11.28-139.13,15.59l-.53-.15Zm138.47-16.78c-.04-15.48-.04-45.15,0-60.63,1.94,1.17-69.58-15.22-69.15-14.91,0,0-67.97-14.41-67.97-14.41.09,34.21.35,70.16.08,104.46l137.04-14.51Z"></path>
  <polygon class="cls-1" points="147.96 47.6 63.76 36.45 63.76 15.55 147.96 32.66 147.96 47.6"></polygon>
  <path class="cls-3" d="m148.87,48.32c-15.67-1.88-38.34-5.14-53.45-7.23-10.22-1.47-21.52-3.12-31.68-4.46,0,0-.15-.02-.15-.02v-.15c-.01-7.09-.06-14.18-.14-21.28,19.77,3.8,44.1,8.88,63.57,12.69,0,0,22.03,4.23,22.03,4.23l-.17,16.22Zm-1.47-1.52l.15-13.49c-12.88-2.37-71.19-13.78-82.34-16,0,0,.14,17.96.14,17.96,10.11,1.36,82.04,11.52,82.04,11.52Z"></path>
  <line class="cls-1" x1="68.51" y1="72.03" x2="208.17" y2="76.54"></line>
  <polygon class="cls-3" points="208.15 77.73 68.49 73.22 68.52 71.53 208.19 76.04 208.15 77.73"></polygon>
  <polygon class="cls-1" points="85.47 82.41 85.47 104.09 115.08 101.74 115.08 82.41 85.47 82.41"></polygon>
  <path class="cls-3" d="m84.97,104.63v-22.72h30.61v20.29l-30.61,2.43Zm2.22-20.76l.05,18.69,27.32-1.51-.18-17.78-27.19.59Z"></path>
  <polygon class="cls-1" points="161.23 82.69 161.23 98.47 181.18 96.95 181.18 82.81 161.23 82.69"></polygon>
  <path class="cls-3" d="m160.73,99.01v-16.82l20.95.12v15.11l-20.95,1.6Zm1.21-15.52l.05,14.07,18.69-1.08-.19-13h-18.54Z"></path>
  <polygon class="cls-1" points="152.75 33.44 152.75 48.65 161.18 49.7 161.34 35.09 152.75 33.44"></polygon>
  <path class="cls-3" d="m161.67,50.26l-9.42-1.17v-16.25l9.59,1.84-.17,15.58Zm-7.83-2.31l6.84.96.11-13.15-6.9-1.22-.05,13.41Z"></path>
  <polygon class="cls-1" points="164.9 35.74 164.9 50.26 173.33 51.4 173.49 37.39 164.9 35.74"></polygon>
  <path class="cls-3" d="m173.82,51.97l-9.42-1.27v-15.57l9.59,1.84-.17,15Zm-8.07-2.46l7.08,1.07.15-12.53-7.21-1.44-.02,12.91Z"></path>
  <polygon class="cls-1" points="185.69 39.81 185.69 53.18 192.84 54.22 192.99 41.33 185.69 39.81"></polygon>
  <path class="cls-3" d="m193.31,54.78l-8.11-1.18v-14.39l8.28,1.72-.16,13.85Zm-6.86-2.18l5.9.89.14-11.77-6.08-1.08.04,11.96Z"></path>
  <polygon class="cls-1" points="196.11 41.75 196.11 54.56 202.95 55.61 203.11 43.27 196.11 41.75"></polygon>
  <path class="cls-3" d="m203.44,56.17l-7.82-1.19v-13.84l7.98,1.73-.17,13.29Zm-6.64-2.04l5.68.9.1-11.2-5.74-1.21-.04,11.51Z"></path>
  <polygon class="cls-1" points="185.69 57.48 185.69 71.02 192.84 71.52 192.99 58.39 185.69 57.48"></polygon>
  <path class="cls-3" d="m193.32,72.04l-8.11-.56v-14.55l8.28,1.03-.16,14.08Zm-6.94-1.75l5.9.4.16-11.71-6.06-.77v12.08Z"></path>
  <polygon class="cls-1" points="196.11 58.76 196.11 71.81 202.95 72.29 203.11 59.64 196.11 58.76"></polygon>
  <path class="cls-3" d="m203.44,72.82l-7.82-.55v-14.07l7.98,1.01-.17,13.61Zm-6.56-1.55l5.59.51.1-11.53-5.78-.73.08,11.75Z"></path>
  <polygon class="cls-1" points="152.75 53.68 152.75 68.8 161.21 69.28 161.34 54.71 152.75 53.68"></polygon>
  <path class="cls-3" d="m161.71,69.8l-9.46-.54v-16.15l9.59,1.14-.13,15.54Zm-7.86-1.95l6.8.49.17-12.6-6.89-.81-.08,12.92Z"></path>
  <polygon class="cls-1" points="164.9 55.13 164.9 69.53 173.36 70.01 173.49 56.07 164.9 55.13"></polygon>
  <path class="cls-3" d="m173.86,70.54l-9.46-.53v-15.43l9.59,1.05-.13,14.92Zm-7.97-1.77l6.95.46.05-12.28-7.04-.79.05,12.61Z"></path>
  <polygon class="cls-1" points="187.41 82.83 187.41 96.52 205.11 95.19 205.11 82.87 187.41 82.83"></polygon>
  <path class="cls-3" d="m186.91,97.06v-14.74l18.7.04v13.29l-18.7,1.41Zm1-13.73v12.66l16.7-1.26v-11.36l-16.7-.04Z"></path>
  <polygon class="cls-1" points="128.13 82.53 128.13 108.64 151.98 106.12 151.98 82.63 128.13 82.53"></polygon>
  <path class="cls-3" d="m127.63,109.19v-27.16l24.86.1v24.44l-24.86,2.62Zm2.03-25.61l-.05,23.78,21.44-2.12-.05-21.75-21.33.09Z"></path>
  <polygon class="cls-1" points="42.02 81.31 42.02 111.28 61.81 114.54 61.81 81.57 42.02 81.31"></polygon>
  <path class="cls-3" d="m62.09,114.8l-20.57-3.09v-30.9l20.79.27-.22,33.72Zm-19.23-4.85l17.62,2.9-.23-29.84-17.4-.59v27.53Z"></path>
  <polygon class="cls-1" points="25.29 81.1 25.29 103.22 36.36 104.74 36.36 81.25 25.29 81.1"></polygon>
  <path class="cls-3" d="m36.86,105.32l-12.07-1.66v-23.06l12.07.16v24.56Zm-10.71-3.33l8.94,1.19-.08-21.09-9.08-.08.22,19.97Z"></path>
  <polygon class="cls-1" points="40.85 21.19 40.85 42.38 49.85 40.85 49.85 18.38 40.85 21.19"></polygon>
  <path class="cls-3" d="m40.4,42.92v-22.06l9.9-3.09v23.46l-9.9,1.69Zm1.35-20.9l.09,19.14,7-1.35-.14-19.68-6.95,1.9Z"></path>
  <polygon class="cls-1" points="40.85 49.96 40.85 72.59 49.85 72.44 49.85 48.59 40.85 49.96"></polygon>
  <path class="cls-3" d="m40.4,73.05v-23.48l9.9-1.51v24.82l-9.9.16Zm1.35-22.13l.04,20.32,6.82-.17.05-20.99-6.91.84Z"></path>
  <polygon class="cls-1" points="10.7 80.86 10.7 101.22 19.7 102.43 19.7 80.96 10.7 80.86"></polygon>
  <path class="cls-3" d="m20.2,103l-10-1.34v-21.31l10,.12v22.53Zm-8.85-3.1l7.37.85-.16-18.93-7.06-.08-.15,18.16Z"></path>
  <polygon class="cls-3" points="106.93 102.09 105.32 102.14 105.32 82.74 106.93 82.69 106.93 102.09"></polygon>
  <polygon class="cls-3" points="176.64 97.23 175.45 97.27 175.45 82.69 176.64 82.64 176.64 97.23"></polygon>
  <rect class="cls-3" x="200.63" y="82.69" width="1" height="12.8"></rect>
  <line class="cls-1" x1="187.49" y1="92.66" x2="201.05" y2="92.15"></line>
  <rect class="cls-3" x="187.49" y="91.9" width="13.56" height="1" transform="translate(-3.29 7.27) rotate(-2.13)"></rect>
  <line class="cls-1" x1="161.34" y1="93.64" x2="175.99" y2="93.09"></line>
  <polygon class="cls-3" points="161.36 94.38 161.33 93.14 175.97 92.59 176.01 93.83 161.36 94.38"></polygon>
  <line class="cls-1" x1="85.5" y1="96.5" x2="106.21" y2="95.72"></line>
  <polygon class="cls-3" points="85.57 97.4 85.37 95.63 106.17 94.72 106.2 96.33 85.57 97.4"></polygon>
  <line class="cls-1" x1="106.3" y1="88.26" x2="115.17" y2="88.08"></line>
  <polygon class="cls-3" points="106.49 89.38 106.29 87.76 115.16 87.58 115.13 89.18 106.49 89.38"></polygon>
  <line class="cls-1" x1="176.05" y1="87.8" x2="181.27" y2="87.71"></line>
  <polygon class="cls-3" points="176.06 88.45 176.05 87.3 181.26 87.21 181.27 88.35 176.06 88.45"></polygon>
  <line class="cls-1" x1="201.19" y1="87.71" x2="205.22" y2="87.62"></line>
  <rect class="cls-3" x="201.19" y="87.16" width="4.02" height="1" transform="translate(-1.92 4.59) rotate(-1.29)"></rect>
  <polygon class="cls-2" points="74.33 23.64 74.33 24.94 69.43 24.1 69.43 26.6 73.75 27.33 73.75 28.66 69.43 27.9 69.43 30.38 74.51 31.26 74.51 32.56 67.89 31.44 67.89 22.46 74.33 23.64"></polygon>
  <polygon class="cls-2" points="76.04 23.91 77.28 24.12 82.34 31.25 82.34 24.98 83.78 25.24 83.79 34.11 82.59 33.91 77.53 26.85 77.53 33.09 76.04 32.84 76.04 23.91"></polygon>
  <path class="cls-2" d="m85.36,25.55l6.74,1.18v1.34l-6.76-1.18s.02-1.29.02-1.34Z"></path>
  <polygon class="cls-2" points="85.36 29.28 89.86 30.06 89.86 31.39 85.36 30.63 85.36 29.28"></polygon>
  <polygon class="cls-2" points="85.35 33.05 92.28 34.2 92.28 35.52 85.34 34.37 85.35 33.05"></polygon>
  <path class="cls-2" d="m99.24,33.77s1.75-.16,1.87-2.3c.11-2.14-1.62-3.3-2.99-3.67l-4.25-.77v8.77l1.43.23v-2.61l2.56.43c.02.06,1.87,2.93,1.87,2.93l1.62.26-2.11-3.27Zm-1.61-1.21l-2.31-.38v-3.62s2.21.4,2.42.43c.22.04,1.86.43,1.93,2.03.06,1.59-1.25,1.64-2.04,1.54Z"></path>
  <path class="cls-2" d="m109.66,31.91l1-.77s-1.52-2.11-4.42-2.08c-3.35.04-3.87,2.52-3.91,3.93-.05,1.62,1.37,3.99,3.58,4.7,2.21.7,3.45.33,4.58-.21v-3.47l-3.71-.61-.02,1.28,2.32.41v1.49s-2.34.88-4.25-1.05c-1.91-1.93-.74-4.75.74-5.01,1.47-.26,2.54-.15,4.09,1.39Z"></path>
  <polygon class="cls-2" points="111.37 30.09 112.97 30.37 115.69 35.2 118.47 31.32 119.94 31.58 116.36 36.59 116.34 39.55 114.93 39.3 114.95 36.32 111.37 30.09"></polygon>
  <path class="cls-2" d="m127.01,35.05l1.18-.57s-1.38-2.04-3.94-2.34c-2.23-.26-3.4,1.06-3.4,1.06l1.15.98s.99-1.1,2.5-.72c1.24.31,1.72.74,2.52,1.59Z"></path>
  <path class="cls-2" d="m120.28,33.9l1.21,1.03s-.84,2.25,1.26,3.8c1.98,1.46,3.85.51,3.85.51l1.18,1.01s-2.78,2.09-6.15-.75c-2.99-2.52-1.34-5.6-1.34-5.6Z"></path>
  <path class="cls-2" d="m133.75,34.01l-1.36-.26-4.08,7.8,1.51.26,1-1.9,4.49.76.95,2.24,1.53.23-4.05-9.12Zm-2.43,4.82l1.74-3.4,1.71,4.01-3.45-.62Z"></path>
  <path class="cls-2" d="m144.43,36.21c-.53-.32-1.22-.56-2.04-.72-.97-.19-3.45-.62-3.45-.62v8.47s1.46.24,1.46.24v-2.51s1.71.33,2.66.44c.95.11,3.01-.09,3.12-2.13s-1.21-2.85-1.74-3.17Zm.32,2.92c-.19,1.23-1.48,1.18-2.08,1.13s-2.27-.39-2.27-.39v-3.5s1.43.23,2.55.48,1.99,1.06,1.8,2.29Z"></path>
</svg>
