<?xml version="1.0" encoding="UTF-8"?>
<svg xmlns="http://www.w3.org/2000/svg" id="Layer_1" viewBox="0 0 258.9 185">
  <defs>
    <style>.cls-1{fill:#fff;}.cls-2{fill:#d2b1e8;}.cls-3{fill:#17303b;}.cls-4{fill:#162f3b;}.cls-5{stroke-dasharray:0 0 12.72 14.02;stroke-width:6.47px;}.cls-5,.cls-6{fill:none;stroke:#162f3b;stroke-miterlimit:10;}.cls-6{stroke-linecap:round;stroke-width:2.67px;}</style>
  </defs>
  <path class="cls-5" d="m246.7,54.44c28.71,82.84-52.72,128.49-119.27,98.07"></path>
  <path class="cls-1" d="m56.01,96.44l182.34,2.68c.88.01,1.61-.7,1.61-1.59l.55-88.77c0-.88-.69-1.6-1.57-1.61-17.79-.18-179.95-3.55-181.11-1.69-1.31,2.09-2.97,89.59-1.92,90.97h.1Z"></path>
  <path class="cls-6" d="m65.6,14.92c2.93,1.05,32.46-.26,32.46-.26"></path>
  <path class="cls-6" d="m66.11,22.49c1.29-.4,17.47-.12,17.47-.12"></path>
  <line class="cls-6" x1="89.57" y1="21.65" x2="105.78" y2="21.58"></line>
  <line class="cls-6" x1="65.31" y1="30.47" x2="99.28" y2="29.35"></line>
  <path class="cls-2" d="m207.98,16.51c3.42-.35,18.9-.08,18.9-.08l-.5,22.37-17.9-.4c.07-2.98-.51-21.9-.51-21.9Z"></path>
  <path class="cls-3" d="m206.87,40.47l-.39-25.6,21.76.25.6,25.37-21.97-.02Zm2.48-22.71c.11,3.83.44,15.01.47,19.35l16.27.09-.57-19.45c-3.38-.05-12.28-.16-16.17.01Z"></path>
  <path class="cls-4" d="m117.53,79.46c-.24-.06-.31-.13-.38-.2l-.39-.4v-.56c.05-2.44-.41-25.36-.42-25.54l-.02-.69.55-.42c.29-.22,81.01-.47,85.82.78.05.01-.27,29.17-.27,29.17,0,0-83.28-1.73-84.9-2.15Zm2.94-24.1c.11,3.77.22,17.31.27,21.33,7.42.34,48.21.63,77.84,1.01l-.07-21.23c-8.29-.38-68.2-1.38-78.04-1.11Z"></path>
  <path class="cls-3" d="m59.75,93.02c56.69.42,109.93,1.08,166.67,3.73,0,0,8.56.28,8.56.28l2.14.07c.46.02.39.01.58-.05.12-.06.24-.16.3-.29.11-.07.07-1.1.1-1.74l.05-2.14.24-17.13c.37-22.39.07-43.82-.18-66.28-.13-.19-.12-.28-.57-.25h-2.15c-36.88.1-94.29-1.57-131.7-1.97-7.43-.11-39.61-.3-44.91-.25.24-.12.48-.47.51-.56.09,0,.14-.29.1-.13-.23,1.47-.34,3.01-.46,4.59-1.68,27.92.7,82.12.7,82.12Zm-3.74,3.63h-.1s-.15,0-.15,0l-.02-.08c-.48-2.6-.31-6.06-.41-8.68-.03-5.36-.11-20.15-.13-25.71.07-18.64-.54-37.25.6-55.89.07-.58.13-1.12.44-1.77.08-.16.43-.52.74-.69.4-.22.65-.26.63-.26,15.38-1.4,30.85-.61,46.25-.71,33.01.12,69.63,1.2,102.81,2.06,8.77.27,23.91.76,32.6,1.04.96-.08,2.53.75,2.76,1.92.21.43.1.99.13,1.44-.02.6-.05,2.57-.07,3.21-.07,2.65-.2,10.09-.27,12.85-.47,23.59-.62,48.11-.42,71.76,0,.27.04.9-.21,1.44-.23.53-.64.97-1.14,1.24-.45.29-1.26.32-1.5.3h-2.14c-5.22-.02-37.34.13-43.33.1-45.71.13-91.36-2.86-137.05-3.57h0Z"></path>
  <path class="cls-1" d="m71.05,123.84c17.48-8.01,25.16-28.68,17.15-46.16-8.01-17.48-28.68-25.16-46.16-17.15-17.48,8.01-25.16,28.68-17.15,46.16,8.01,17.48,28.68,25.16,46.16,17.15Z"></path>
  <polygon class="cls-4" points="119.27 182.8 130.57 152.76 151.26 126.15 95.31 133.69 119.27 182.8"></polygon>
  <path class="cls-1" d="m111.39,79.53l-3.76-11.37c-.74-2.23-3.15-3.45-5.38-2.71l-11.25,3.72c-2.04-3.17-4.52-6.08-7.43-8.62l5.32-10.58c1.06-2.1.21-4.66-1.89-5.72l-10.69-5.38c-2.1-1.06-4.66-.21-5.72,1.89l-5.32,10.58c-3.77-.82-7.59-1.08-11.35-.82l-3.72-11.25c-.74-2.23-3.15-3.45-5.38-2.71l-11.37,3.76c-2.23.74-3.45,3.15-2.71,5.38l3.72,11.25c-3.17,2.04-6.08,4.52-8.62,7.43l-10.58-5.32c-2.1-1.06-4.66-.21-5.72,1.89l-5.38,10.69c-1.06,2.1-.21,4.66,1.89,5.72l10.58,5.32c-.82,3.77-1.08,7.59-.82,11.35l-11.25,3.72c-2.23.74-3.45,3.15-2.71,5.38l3.76,11.37c.74,2.23,3.15,3.45,5.38,2.71l11.25-3.72c2.04,3.17,4.52,6.08,7.43,8.62l-5.32,10.58c-1.06,2.1-.21,4.66,1.89,5.72l10.69,5.38c2.1,1.06,4.66.21,5.72-1.89l5.32-10.58c3.77.82,7.59,1.08,11.35.82l3.72,11.25c.74,2.23,3.15,3.45,5.38,2.71l11.37-3.76c2.23-.74,3.45-3.15,2.71-5.38l-3.72-11.25c3.17-2.04,6.08-4.52,8.62-7.43l10.58,5.32c2.1,1.06,4.66.21,5.72-1.89l5.38-10.69c1.06-2.1.21-4.66-1.89-5.72l-10.58-5.32c.82-3.77,1.08-7.59.82-11.35l11.25-3.72c2.23-.74,3.45-3.15,2.71-5.38Zm-33.53,22.49c-5.9,11.73-20.2,16.46-31.94,10.56-11.73-5.9-16.46-20.2-10.56-31.94,5.9-11.73,20.2-16.46,31.94-10.56,11.73,5.9,16.46,20.2,10.56,31.94Z"></path>
  <path class="cls-3" d="m105.46,65.91c-1.09-.56-2.37-.56-3.52-.09l-3.61,1.23s-7.21,2.5-7.21,2.5l-.28.1-.17-.26c-2.1-3.13-4.62-5.97-7.49-8.39,0,0-.35-.29-.35-.29l.21-.43c.81-1.69,3.19-6.62,3.98-8.29.23-.52,1.07-2.17,1.27-2.7.59-1.56-.16-3.45-1.62-4.15l-5.49-2.64s-5.49-2.64-5.49-2.64c-1.37-.65-3.12-.07-3.86,1.19l-5.39,10.88s-.45.91-.45.91c-3.92-.89-7.97-1.25-11.99-.99,0,0-1.04.07-1.04.07l-.32-.98-3.78-11.54c-.54-1.32-2.15-2.12-3.55-1.69-2.89.94-8.73,2.74-11.62,3.67-1.47.46-2.42,2.15-2.08,3.69,0,0,3.64,11.61,3.64,11.61,0,0,.2.63.2.63-3.37,2.04-6.46,4.56-9.11,7.5,0,0-.35.39-.35.39l-.45-.23c-3.6-1.88-7.29-3.8-10.85-5.59-1.66-.69-3.81.03-4.65,1.67,0,0-2.77,5.45-2.77,5.45,0,0-2.76,5.46-2.76,5.46-.82,1.67-.14,3.85,1.43,4.79l10.92,5.46.36.18s-.09.4-.09.4c-.81,3.82-.11,7.98.25,11.87,0,0-11.73,4.85-11.73,4.85-1.56.68-2.42,2.59-1.88,4.18,0,0,2.78,10.61,2.78,10.61.54,1.51,2.28,2.38,3.77,1.98l11.51-3.92s.86-.29.86-.29c2.14,3.38,4.75,6.48,7.79,9.08,0,0,.75.65.75.65l-.45.91s-5.36,10.88-5.36,10.88c-.51,1.29.08,2.91,1.32,3.53,0,0,5.44,2.71,5.44,2.71,0,0,5.45,2.7,5.45,2.7,1.22.6,2.81.09,3.49-1.05l5.4-10.84.54-1.08s1.19.25,1.19.25c3.98.85,8.09,1.02,12.15.68.19.65,3.92,11.72,4.21,12.67.5,1.18,1.94,1.86,3.17,1.47,2.88-.96,8.68-2.81,11.56-3.77,1.25-.41,2.03-1.86,1.73-3.14l-3.71-11.54-.35-1.08s.94-.59.94-.59c3.41-2.13,6.46-4.82,9.11-7.85,0,0,.88.46.88.46l10.77,5.63c1.39.61,3.23.03,4-1.37,0,0,2.85-5.39,2.85-5.39l2.85-5.4c.8-1.51.23-3.58-2.42-4.32,0,0-10.79-5.7-10.79-5.7l-.29-.15c.93-3.76,1.26-7.67,1.04-11.55,0,0-.01-.2-.01-.2l.19-.06s8.46-3.27,12.06-4.96c2.08-.98,2.72-2.18,1.96-4.36,0,0-3.65-12.81-4.75-13.36Zm7.39,13.27c1.45,3.42.03,6.04-2.36,6.65,0,0-12.18,4.66-12.18,4.66.3,3.82-.15,5.12-.88,8.9,0,0,8.92,3.77,12.02,5.34,2.07,1.23,2.72,3.85,1.69,6.05,0,0-3.97,6-3.97,6,0,0-2.67,5.56-2.67,5.56-.57,1.12-1.59,2.02-2.78,2.47-1.33.52-2.9.47-4.2-.16,0,0-.35-.17-.35-.17-.38-.18-1.66-.8-2.07-.99-1.67-.81-6.52-3.15-8.28-4.01,0,0,1.58-.31,1.58-.31-2.54,3-5.54,5.62-8.83,7.78,0,0,.59-1.67.59-1.67,1.06,3.1,2.79,8.17,3.81,11.26.98,2.85-.63,6.24-3.49,7.22,0,0-5.86,1.97-5.86,1.97l-5.87,1.96c-3.06.99-6.53-1.02-7.33-4.12-.14-.4-.57-1.75-.72-2.18-.58-1.77-2.27-6.88-2.88-8.73,0,0,1.62,1.09,1.62,1.09-3.94.27-7.93-.02-11.79-.89,0,0,1.73-.83,1.73-.83-.86,1.66-3.33,6.55-4.17,8.19,0,0-.7,1.37-.7,1.37l-.35.68-.18.35c-.71,1.38-2.01,2.45-3.5,2.88-1.32.39-2.79.29-4.03-.31,0,0-5.51-2.8-5.51-2.8l-5.5-2.81c-2.61-1.36-3.7-4.85-2.34-7.46.11-.21.41-.81.52-1.03,1.22-2.4,3.62-7.09,4.89-9.55,0,0,.3,1.55.3,1.55-2.94-2.61-5.49-5.64-7.58-8.95l1.38.49c-3.33,1.04-8.46,2.76-11.79,3.74-2.51.58-5.28-.93-6.09-3.38,0,0-1.86-5.88-1.86-5.88,0,0-1.85-5.88-1.85-5.88-.34-1.17-.23-2.46.3-3.55.71-1.65,2.43-2.58,4.07-2.97.86-.27,3.47-1.11,4.38-1.39,0,0,5.84-1.86,5.84-1.86l-.41.62c-.2-3.86-.67-5.6.17-9.37l.28.58c-3.66-1.87-9.16-4.37-12.86-6.31-1.95-1.21-2.89-4.18-1-8.11,0,0,2.74-5.5,2.74-5.5,0,0,2.75-5.49,2.75-5.49.53-1.01,1.67-2.61,2.65-3.19,1.32-.77,2.64-.76,3.72-.36,0,0,12.97,6.1,12.97,6.1,0,0-.8.16-.8.16,2.51-2.95,4.96-4.2,8.2-6.34l-.34.96c-.6-1.75-2.42-6.96-3.01-8.69,0,0-.5-1.45-.5-1.45l-.25-.72c-1.14-2.66.26-6.03,3.03-7,3.48-1.2,8.2-2.87,11.67-4.02,2.9-.94,6.18.94,6.94,3.87.14.42.59,1.73.74,2.18.58,1.76,2.3,6.88,2.91,8.73,0,0-1.36-.92-1.36-.92,3.92-.28,7.88,0,11.72.87l-1.46.7c.85-1.64,3.33-6.56,4.18-8.19,0,0,.7-1.36.7-1.36l.35-.68c1.17-2.74,4.66-4.11,7.33-2.75,1.89.95,3.64,1.9,5.47,2.86,0,0,5.45,2.88,5.45,2.88,2.22,1.19,3.54,3.9,2.65,6.38-1.17,3.28-2.87,6.69-4.5,9.82,0,0,4.29,3.46,6.31,6.73,0,0,10.53-3.85,10.53-3.85,1.21-.48,2.68-.76,4.49.43,1.12.73,2.23,3.72,2.53,4.97,0,0,3.25,11.2,3.25,11.2h0Z"></path>
  <path class="cls-3" d="m78,102.09c-7.82,15.83-28.59,19.81-40.01,5.32-13.24-17.06-1.86-42.56,20.49-41.36,18.3,1.32,27.67,20.18,19.52,36.04h0Zm-1.56-3.18c8.68-17.74-8.35-34.72-26.84-28.82-15.43,4.7-16.7,24.25-8.82,34.46,9.29,12.06,28.65,8.66,35.66-5.65h0Z"></path>
</svg>
