<?xml version="1.0" encoding="UTF-8"?>
<svg xmlns="http://www.w3.org/2000/svg" id="Layer_1" viewBox="0 0 239.86 185">
  <defs>
    <style>.cls-1,.cls-2,.cls-3,.cls-4,.cls-5,.cls-6,.cls-7,.cls-8{fill:none;stroke:#162f3b;stroke-linecap:round;stroke-miterlimit:10;stroke-width:3px;}.cls-2{stroke-dasharray:0 0 3.89 6.81;}.cls-3{stroke-dasharray:0 0 3.89 6.82;}.cls-9{fill:#ebba8c;}.cls-10{fill:#fff;}.cls-11{fill:#17303b;}.cls-4{stroke-dasharray:0 0 4.04 7.07;}.cls-5{stroke-dasharray:0 0 3.87 6.77;}.cls-6{stroke-dasharray:0 0 3.88 6.79;}.cls-7{stroke-dasharray:0 0 3.8 6.65;}.cls-8{stroke-dasharray:0 0 3.8 6.65;}</style>
  </defs>
  <path class="cls-10" d="m115.46,63.14c-4.28.53-7.96,2.53-10.64,5.41-1.04,1.12-2.91.57-3.21-.93l-6.17-31.29L3.04,54.55l18.37,93.19c.1.51.6.84,1.11.74l30.91-6.09c1.53-.3,2.05-2.23.88-3.25-3.26-2.85-5.49-6.93-5.9-11.71-.69-8.04,4.42-15.67,12.12-18.09,10.12-3.18,20.48,3.16,22.47,13.28.78,3.94.16,7.83-1.5,11.16-.7,1.39.52,2.98,2.05,2.68l29.79-5.87-5.97-32.27c-.28-1.51,1.27-2.71,2.65-2.04,3.29,1.58,7.09,2.15,10.95,1.39,10.12-1.99,16.46-12.34,13.28-22.46-2.49-7.95-10.51-13.08-18.77-12.06Z"></path>
  <polyline class="cls-1" points="95.84 38.3 95.45 36.33 93.49 36.72"></polyline>
  <line class="cls-7" x1="86.97" y1="38.01" x2="8.26" y2="53.52"></line>
  <polyline class="cls-1" points="5 54.16 3.04 54.55 3.42 56.51"></polyline>
  <path class="cls-4" d="m4.79,63.45l16.62,84.29c.1.51.6.84,1.11.74l30.91-6.09c1.53-.3,2.05-2.23.88-3.25-3.26-2.85-5.49-6.93-5.9-11.71-.69-8.04,4.42-15.67,12.12-18.09,10.12-3.18,20.48,3.16,22.47,13.28.78,3.94.16,7.83-1.5,11.16-.7,1.4.52,2.98,2.05,2.68l24.36-4.8"></path>
  <polyline class="cls-1" points="111.36 130.97 113.32 130.58 112.96 128.61"></polyline>
  <path class="cls-2" d="m111.72,121.91l-4.37-23.61c-.28-1.51,1.27-2.71,2.65-2.04,3.29,1.58,7.09,2.15,10.95,1.39,10.12-1.99,16.46-12.34,13.28-22.46-2.49-7.95-10.51-13.08-18.77-12.06-4.28.53-7.96,2.53-10.64,5.41-1.04,1.12-2.91.57-3.21-.93l-5.12-25.98"></path>
  <path class="cls-9" d="m71.83,39.45c-1.37-11.81-14.31-32.31-19.4-39.45C30.54,1.67,22.71,6.93,16.62,12.27c9.92,16.44,8,14.4,10.85,29.18.18.97.37,1.7.56,2.43,1.58,8.72,2.08,19.28,2.77,26.98.29,2.89.61,5.3.97,7,.4,1.22.57,2.19,1.02,2.7.22.25.45.51.68.52l.71.05c.97-.18,1.75-1.08,2.78-2.21,4.17-5.23,7.24-18.65,7.05-33.97l27.81-5.49Z"></path>
  <path class="cls-11" d="m30.8,70.86c.46,1.89,1.17,5.23,1.64,6.78.37.9.71,2.2,1.25,2.54-.02-.01-.14-.04-.14-.04,0,0,.14,0,.14,0h.56c2.92-1.3,4.5-6.97,5.35-10.67,2.74-12.88,3.48-27.64,4.63-40.82,1.23,12.64,1.33,41.2-6.38,51.3-.97,1.22-2.64,2.42-4.29,2.1-3.23-.25-2.75-8.78-2.77-11.19h0Z"></path>
  <path class="cls-11" d="m72.06,42.17c1.82,6.46,10.76,40.71-.58,40.49,0,0,1-1.04,1-1.04.47,4.6-.23,11.88-6.16,12.19,0,0,.92-.87.92-.87-.53,5.39-4.45,12.71-8.95,5.48-1.7-2.74-1.87-6-2.6-9.03-.5-2.39-.95-4.78-1.38-7.17-1.2-6.68-2.39-14.48-3.51-20.66.13.02-.01.31.78.29.61-.29.21-.11.36-.2l.05-.06c.08-.12.05-.1.05-.07-.14,1.08,0,2.38.08,3.61.51,6.02,1.23,12.1,1.53,18.16.11,3.69.36,7.44-.58,11.09-1.38,4.43-4.43,2.7-5.82-.64-2.93-6.81-5.44-15.38-6.64-22.67-.19-1.13.79-1.03.6-2.16,1.03,4.74,2.13,9.47,3.46,14.13,1.24,3.96,2.08,7.1,4.36,10.6,2.39,3.34,3.01-1.73,3.1-3.43.33-7.23-.49-14.11-1.19-21.32-.16-2.25-.63-5.12-.47-7.43.05-.32.07-.58.35-.9.17-.1-.22.06.41-.23.82-.03.69.28.83.32.08.11.14.27.17.35,1.45,6.9,2.4,14.01,3.74,20.93.9,4.7,1.72,9.55,3.13,14.09.32.87.91,2.2,1.39,2.57,3.39,2.63,4.66-3.9,4.91-6.63,5.62.2,5.51-7.2,5.13-11.21,0,0,1.1.08,1.1.08,1.53.15,2.35-1.08,2.84-2.44,1.46-4.87.89-10.24.54-15.32-.68-6.97-2.28-13.84-3.56-20.74l.62-.13Z"></path>
  <path class="cls-11" d="m65.21,93.91c-1.2-8.1-3.24-24.27-4.19-30.07l.81-.05c1.68,7.19,4.04,22.57,4.86,28.87.16,1.25-.94,1.05-1.05,2.31l-.44-1.06Z"></path>
  <path class="cls-11" d="m70.84,83.93c-1.12-7.55-2.05-17.22-3.19-25.06l.69-.19c1.66,6.73,3.12,17.4,3.98,24,.16,1.25-.94,1.05-1.05,2.31l-.44-1.06Z"></path>
  <path class="cls-10" d="m208.59,39.45c1.7-2.88,2.6-6.31,2.37-10.02-.49-7.8-6.32-14.44-13.99-15.96-10.4-2.05-19.99,5.37-20.88,15.64-.23,2.69.16,5.28,1.06,7.65.74,1.96-.77,4.03-2.86,3.85l-30.88-2.68-3.12,31.68c-.15,1.56,1.54,2.58,2.88,1.77,3.63-2.21,8.09-3.13,12.71-2.17,7.27,1.51,13.67,9.19,13.85,16.61.26,10.62-8.71,18.81-18.99,17.92-3.81-.33-7.23-1.86-9.92-4.19-1.33-1.16-3.42-.29-3.57,1.47l-2.81,32.42,93.84,8.13,8.28-95.56-25.81-2.24c-2.1-.18-3.22-2.49-2.15-4.31Z"></path>
  <polyline class="cls-1" points="145.39 38.1 143.4 37.93 143.2 39.92"></polyline>
  <path class="cls-3" d="m142.54,46.71l-2.26,22.9c-.15,1.56,1.54,2.58,2.88,1.77,3.63-2.21,8.09-3.13,12.71-2.17,7.27,1.51,13.67,9.19,13.85,16.61.26,10.62-8.71,18.81-18.99,17.92-3.81-.33-7.23-1.86-9.92-4.19-1.33-1.16-3.42-.29-3.57,1.47l-2.35,27.04"></path>
  <polyline class="cls-1" points="134.6 131.44 134.43 133.44 136.42 133.61"></polyline>
  <line class="cls-8" x1="143.04" y1="134.18" x2="222.97" y2="141.11"></line>
  <polyline class="cls-1" points="226.28 141.39 228.27 141.57 228.44 139.57"></polyline>
  <line class="cls-5" x1="229.03" y1="132.83" x2="236.09" y2="51.37"></line>
  <polyline class="cls-1" points="236.38 48 236.55 46 234.56 45.83"></polyline>
  <path class="cls-6" d="m227.79,45.24l-17.05-1.48c-2.1-.18-3.22-2.49-2.15-4.31,1.7-2.88,2.6-6.31,2.37-10.02-.49-7.8-6.32-14.44-13.99-15.96-10.4-2.05-19.99,5.37-20.88,15.64-.23,2.69.16,5.28,1.06,7.65.74,1.96-.77,4.03-2.86,3.85l-25.5-2.21"></path>
  <path class="cls-9" d="m160.77,136.9c-1.56,5.54-4.85,21.12-6.57,42.38,10.01,6.17,25.9,6.04,33.75,4.04,2.5-16.13,6.09-22.93,9.91-33.75.28-.94,6.72-16.79,9.59-23.96,1.05-2.71-.21.72.23-.96.2-1.27.48-2.21.32-2.87-.08-.33-.17-.65-.37-.78l-.62-.37c-.94-.28-2.05.17-3.48.71-6.09,2.77-10.48,4.08-17.26,17.82l-25.51-2.26Z"></path>
  <path class="cls-11" d="m204.92,131.84c.45-1.89,1.33-5.18,1.61-6.79.08-.97.37-2.28.03-2.83,0,.02.1.1.11.1l-.12-.07-.5-.26.22.1c-1.3-.39-2.64.44-4.13,1.39-4.32,2.89-7.56,7.12-10.53,11.35-4.07,5.84-7.58,12.07-11.49,18.06,4.23-11.31,11.58-27.83,23.43-32.65,1.24-.41,2.89-.47,3.97.38,2.76,1.69-1.52,9.07-2.61,11.23h0Z"></path>
  <path class="cls-11" d="m161.12,134.72c2.13-10.52,4.13-21.21,9.22-30.82.99-1.95,4.64-6.22,6.04-2.24.75,3.1.2,6.28-.08,9.29-.66,5.35-1.63,10.63-2.59,15.9,0,0-1.68-.35-1.68-.35,1.91-8.24,4-16.42,6.52-24.52,1.76-5.03,3.07-10.47,6.47-14.82,2.75-2.77,5.33.08,5.89,2.9.28,1.11.42,2.18.48,3.33l-1.85-.32c1.37-2.96,4.8-11.42,9.07-9.43,3.86,2.89,3.39,8.72,2.67,12.94,0,0-1.46-.61-1.46-.61,1.02-1.39,2.16-2.61,3.65-3.58,1.95-1.42,5.03-1.28,6.32.97,1.11,2.82.22,5.91-.23,8.75-1.35,6.33-3.37,12.46-5.61,18.51,1.31-4.96,7-23.18,4.41-26.92-3.67-3.14-7.41,3.6-9.25,6.13,0,0,.59-3.57.59-3.57.45-2.94.66-6.18-.44-8.98-.42-.89-1.18-2.51-2.31-2.1-1.23.57-2.07,1.87-2.84,3.04-1.76,2.72-3.14,6.48-4.38,9.49-.15-1.9-.16-5.35-.69-7.17-3.48-13.41-14.71,33.81-15.32,36.34,0,0-1.68-.35-1.68-.35.97-5.27,2.05-10.51,2.78-15.78.33-2.62.69-5.31.44-7.82-.06-.59-.24-1.25-.46-1.47-.1-.09-.11-.1-.3-.08-1.35.5-2.25,1.9-3.09,3.15-5.19,9.29-7.62,19.93-10.27,30.18h0Z"></path>
  <path class="cls-11" d="m189.41,92.51l-5.59,27.43s.89.1,1.01-.21,7.51-28.36,7.51-28.36l-2.92,1.14Z"></path>
  <path class="cls-11" d="m200.23,93.08l-5.9,26.86s.89.1,1.01-.21,7.02-24.85,7.02-24.85l-2.13-1.8Z"></path>
</svg>
