<?xml version="1.0" encoding="UTF-8"?>
<svg xmlns="http://www.w3.org/2000/svg" id="Layer_1" viewBox="0 0 187.84 185">
  <defs>
    <style>.cls-1{fill:#fff;}.cls-2{fill:#d2b1e8;}.cls-3{fill:#162f3b;}.cls-4{stroke:#17303b;stroke-linecap:round;stroke-width:4.04px;}.cls-4,.cls-5{fill:none;stroke-miterlimit:10;}.cls-5{stroke:#162f3b;stroke-width:2.39px;}</style>
  </defs>
  <circle class="cls-1" cx="132.73" cy="39" r="26.05" transform="translate(56.33 154.33) rotate(-72.85)"></circle>
  <path class="cls-3" d="m124.3,66.34c-15.08-4.65-24.44-21.95-19.78-37.03,4.65-15.08,21.58-22.31,36.66-17.66,15.08,4.65,23.56,20.7,18.91,35.78s-18.59,25.23-35.78,18.91Zm15.61-52c-12.91-3.98-28.09,4.07-32.07,16.98-3.98,12.91,5.3,28.31,18.21,32.29,12.91,3.98,26.75-4.2,30.74-17.12,3.98-12.91-3.96-28.17-16.87-32.16Z"></path>
  <path class="cls-2" d="m125.12,57.38l1-3.24c-3.77-1.7-7.15-4.82-8.77-8.14l-.33-.68,4.67-3.9.53,1.13c.95,2,3,4.57,5.46,5.96l2.6-8.44c-3.18-1.96-9.04-5.97-7.23-11.84,1.14-3.69,5.44-6.26,10.47-6.26.77,0,1.54.06,2.28.19l.92-2.97,4.33,1.34-.97,3.14c3.32,1.55,5.93,3.91,7.22,6.59l.35.72-5.12,3.83-.51-1.07c-.78-1.64-2.01-3-3.77-4.13l-2.25,7.29c3.42,2.25,7.95,5.62,6.09,11.65-.72,3.26-3.62,7.15-9.35,7.15-.75,0-1.52-.07-2.31-.21l-1,3.24-4.33-1.33Zm7.04-7.47c.31.04.62.05.92.05,2.46,0,4.11-1.17,4.47-2.32.53-1.7-.97-3.19-3.19-4.85l-2.2,7.12Zm.89-21.82c-1.65,0-3.57.53-4.03,2.03-.47,1.51,1.17,2.95,3.17,4.31l1.94-6.27c-.36-.05-.72-.07-1.08-.07Z"></path>
  <path class="cls-3" d="m137.37,20.39l2.48.77-.94,3.04c3.32,1.36,6.18,3.67,7.52,6.47l-3.54,2.65c-1.13-2.39-3.02-3.99-5.2-5.17l-2.82,9.15c3.96,2.58,7.98,5.52,6.31,10.95-.74,3.34-3.59,6.47-8.42,6.47-.92,0-1.91-.11-2.98-.36l-.97,3.15-2.48-.77.97-3.15c-4.25-1.65-7.62-5.02-9.08-8.01l3.13-2.61c1.13,2.39,3.76,5.59,6.92,6.91l3.16-10.24c-4.01-2.43-9.03-6-7.45-11.12,1.09-3.52,5.3-5.58,9.55-5.58.99,0,1.99.11,2.94.34l.89-2.89m-4.63,15.56l2.63-8.53c-.76-.19-1.55-.29-2.32-.29-2.28,0-4.38.86-4.96,2.71-.77,2.48,2.09,4.47,4.64,6.11m.34,14.98c2.95,0,4.92-1.49,5.39-3.01.86-2.79-2.13-4.92-4.64-6.71l-2.92,9.46c.77.17,1.5.25,2.17.25m3.01-32.96l-.57,1.85-.39,1.27c-.53-.06-1.06-.09-1.6-.09-5.45,0-10.14,2.85-11.4,6.94-1.9,6.17,3.54,10.34,7.01,12.55l-2.01,6.51c-1.77-1.32-3.28-3.25-4.04-4.86l-1.07-2.26-1.92,1.6-3.13,2.61-1.16.97.66,1.36c1.59,3.29,4.81,6.38,8.47,8.23l-.47,1.52-.57,1.85,1.85.57,2.48.77,1.85.57.57-1.85.47-1.53c.56.06,1.1.1,1.63.1,6.25,0,9.44-4.24,10.29-7.91,1.89-6.26-2.48-9.94-5.9-12.26l1.64-5.32c1.05.86,1.82,1.83,2.37,2.98l1.01,2.13,1.89-1.41,3.54-2.65,1.27-.95-.69-1.43c-1.28-2.66-3.76-5.03-6.92-6.67l.44-1.43.57-1.85-1.85-.57-2.48-.77-1.85-.57h0Zm-4.43,14.9c-1.05-.82-1.94-1.74-1.72-2.46.27-.88,1.62-1.3,2.9-1.35l-1.17,3.8h0Zm1.79,16.12l1.41-4.57c1.26,1.06,2.04,2.04,1.76,2.94-.16.51-1.13,1.52-3.17,1.63h0Z"></path>
  <circle class="cls-1" cx="30.91" cy="20.32" r="17.72"></circle>
  <path class="cls-3" d="m35.42,39.31c-10.47,2.48-21.95-4.44-24.43-14.91C8.51,13.93,15.95,3.83,26.42,1.34c10.47-2.48,21,4.01,23.49,14.48s-2.19,21.25-14.48,23.49ZM26.6,3.39c-8.94,2.12-15.06,12.08-12.94,21.03,2.12,8.94,12.88,14.77,21.82,12.65,8.94-2.12,14.23-11.7,12.11-20.64S35.55,1.27,26.6,3.39Z"></path>
  <path class="cls-2" d="m32.25,31.48c-.45.05-.91.08-1.38.08-2.4,0-4.86-.68-6.58-1.82l-.43-.29,1.39-3.9.7.48c1.18.8,3.23,1.61,5.14,1.61.04,0,.08,0,.12,0l-1.39-5.85c-2.54-.05-7.36-.38-8.32-4.44-.78-3.29,2.12-6.7,5.38-7.96l-.49-2.06,3-.71.52,2.18c.41-.04.82-.06,1.23-.06,2.05,0,3.88.49,5.28,1.43l.45.3-1.68,4.01-.66-.45c-1.02-.69-2.22-1.06-3.63-1.12l1.2,5.05c2.78.14,6.6.55,7.59,4.73.5,1.54.37,3.28-.38,4.72-.78,1.5-2.17,2.66-4.06,3.38l.53,2.25-3,.71-.53-2.25Zm2.08-4.56c1.93-.86,2.57-2.36,2.38-3.19-.28-1.18-1.67-1.53-3.55-1.74l1.17,4.93Zm-6.35-13.43c-1.41.61-2.59,1.77-2.32,2.91.25,1.04,1.7,1.33,3.35,1.43l-1.03-4.35Z"></path>
  <path class="cls-3" d="m28.92,7.4l.5,2.11c.58-.08,1.16-.12,1.73-.12,1.83,0,3.58.43,4.91,1.32l-1.16,2.77c-1.37-.93-2.87-1.24-4.42-1.24-.14,0-.28,0-.42,0l1.5,6.34c3.21.15,6.59.48,7.48,4.24.85,2.64-.14,6.13-4.57,7.52l.52,2.19-1.72.41-.52-2.19c-.63.1-1.26.15-1.88.15-2.42,0-4.71-.72-6.21-1.71l.93-2.61c1.29.88,3.45,1.72,5.51,1.72.31,0,.63-.02.93-.06l-1.68-7.09c-3.19-.04-7.36-.4-8.2-3.95-.71-3.01,2.13-6.35,5.52-7.38l-.47-2,1.72-.41m.94,11.13l-1.4-5.91c-2.02.59-3.83,2.21-3.43,3.93.41,1.72,2.77,1.9,4.83,1.98m4.02,9.27c2.74-.88,3.79-2.93,3.48-4.22-.46-1.93-2.95-2.15-5.04-2.33l1.56,6.56m-3.98-21.98l-1.28.3-1.72.41-1.28.3.3,1.28.21.88c-3.35,1.52-6.08,5-5.25,8.5,1.01,4.27,5.65,4.84,8.44,4.94l1.07,4.51c-1.55-.16-3.1-.81-4.05-1.46l-1.41-.95-.57,1.6-.93,2.61-.35.97.86.57c1.82,1.21,4.41,1.93,6.94,1.93.29,0,.58,0,.87-.03l.25,1.05.3,1.28,1.28-.3,1.72-.41,1.28-.3-.3-1.28-.25-1.06c2.19-.97,3.31-2.38,3.87-3.47.82-1.58.97-3.49.42-5.23-1.05-4.33-4.88-4.97-7.69-5.15l-.87-3.68c.91.14,1.71.45,2.41.93l1.33.9.62-1.48,1.16-2.77.42-1-.9-.6c-1.51-1.01-3.46-1.54-5.64-1.54-.24,0-.48,0-.72.02l-.24-.99-.3-1.28h0Zm-1.73,11.28c-.9-.12-1.74-.35-1.86-.85-.13-.56.39-1.26,1.23-1.79l.63,2.64h0Zm6.62,8.84l-.75-3.16c1.11.19,1.9.49,2.05,1.11.1.43-.23,1.34-1.3,2.05h0Z"></path>
  <path class="cls-1" d="m105.16,75.6s37.66,11.09,41.04,44.89c3.38,33.8-31.72,47.33-31.72,47.33l.84,15.04h-17.74s-4.22-10.82-4.22-10.82c0,0-10.14,1.69-27.04,0l-3.36,10.07h-16.05s-2.55-16.83-2.55-16.83c0,0-15.21-8.96-21.12-20.79l-18.87.72-1.59-30.4s17.98-3.44,18.36-5.02c1.88-7.71,9.62-14.15,9.62-14.15,0,0,.89-7.87-14.28-14.01,0,0,13.62-12.52,28.73.84,0,0,25.62-15.63,59.96-6.86Z"></path>
  <path class="cls-3" d="m41.86,166.75c-3.34-2.54-17.46-11.61-19.8-21.29l-18.41.38L0,112.75l18.83-2.67c1.78-6.08,7.49-13.8,9.85-15.59-.55-1.98-3.61-6.53-13.21-10.41l-3.9-1.58,3.1-2.85c.15-.14,16.12-13.4,32.26-.64,6.39-3.37,28.49-13.76,58.89-6l.09.02c.4.12,9.96,2.98,20.05,10.15,13.52,9.61,20.06,22.43,21.52,37.04,1.46,14.61-2.45,26.74-13.92,38.92-6.59,7-13.38,8.4-16.32,10.16l.73,15.68h-22.43s-3.91-10.89-3.91-10.89c-3.68.39-15.16,1.73-22.95.38l-3.68,10.29h-20.44s-2.71-18.03-2.71-18.03Zm23.84,3.21l2.26.23c16.28,1.63,27.17-1.13,27.17-1.13l3.67,12.46s13.25.32,14.44-1.11v-14.25s1.51-.8,1.51-.8c.08-.05,8.59-1.58,16.54-10.07,10.45-11.16,13.58-21.36,12.27-34.53-1.32-13.17-7.65-26.17-19.97-34.97-9.05-6.47-17.88-9.26-18.56-9.47-32.74-8.34-56.99,5.42-57.24,5.57l-1.68,1.02-1.47-1.3c-8.88-7.85-19.86-4.35-22.78-.43,10.08,7.09,11.12,13.8,11.12,13.8,0,0-9.47,10.29-10.89,20.78,0,0-16.06,1.34-16.91,2.19l2.98,23.6,16.72-.77.73,2.52c5.55,11.09,21.58,19.41,21.72,19.52l.93.67.88,17.56,12.96-.25,3.59-10.85Z"></path>
  <path class="cls-3" d="m145.66,125.42l.77-7.31c4.04.58,10.96,1.06,16.45-2.6-2.36-.71-5.68-1.89-7.6-3.53-6.45-5.5-5.25-10.93-4.44-13.01,1.61-4.11,5.15-5.74,9.64-5.58,4.74.19,8.37,3.75,9.43,7.79.75,2.85,1.24,6.68,1.15,9.04,3.12-1.07,8.8-3.67,10.58-5.96l3.37,5.29c-5.48,4.14-9.49,6.04-15.29,6.93-.34.54-.76,1.02-1.14,1.54-4.44,6.15-12.18,7.72-17.62,7.72-2.7,0-4.73-.25-5.29-.32Zm11.13-24.12c-.91,2.33,1.26,4.64,2.63,5.82,2.15,1.83,4.52,2.54,6.6,2.73.29-1.89.04-4.16-.76-6.81-.82-2.72-2.34-4.27-4.29-4.34-.05,0-.11,0-.16,0-1.72,0-3.44,1.1-4.03,2.61Z"></path>
  <path class="cls-1" d="m111.29,88.55c6.27-6.19,9.35-20.43,9.35-29.88,0-18.89-17.8-30.4-36.94-30.4-19.14,0-34.66,15.32-34.66,34.21,0,8.67,3.27,16.58,8.65,22.61"></path>
  <path class="cls-3" d="m112.97,89.53c7.46-7.36,10.15-16.62,10.15-27.04,0-21.48-17.68-38.96-39.41-38.96-21.73,0-39.41,17.48-39.41,38.96,0,9.5,4.33,19.5,10.68,26.62l5.87-2.24c-8.11-3.49-11.76-18.62-11.76-25.79,0-16.24,13.28-32.99,35.1-33.17,16.49-.14,33.51,13.52,34.21,29.75.74,17.25-3.15,24.76-8.79,30.33l3.35,1.54Z"></path>
  <ellipse class="cls-3" cx="85.83" cy="62.66" rx="3.67" ry="3.44" transform="translate(8.73 135.8) rotate(-79.62)"></ellipse>
  <path class="cls-3" d="m75.45,37.02s6.58,25.83,10.43,26.18c1.39.13-2.09-15.14-10.43-26.18Z"></path>
  <path class="cls-3" d="m67.66,74s19.63-7.73,18.32-10.76c-.58-1.36-6.86.61-18.32,10.76Z"></path>
  <line class="cls-5" x1="83.54" y1="32.53" x2="83.83" y2="39.23"></line>
  <line class="cls-5" x1="52.64" y1="65.36" x2="59.35" y2="65.29"></line>
  <line class="cls-5" x1="106.65" y1="65.36" x2="113.36" y2="65.29"></line>
  <path class="cls-4" d="m36.06,111.05s4.04-3.56,8.01.25"></path>
  <path class="cls-3" d="m49.95,92.27c10.86-8.77,25.85-11.15,39.48-10.08,2.12.12,4.78.63,6.88.93,0,0,1.14.18,1.14.18,3.35.83,6.76,1.55,9.99,2.78,4.21,1.39,8.69,3.48,12.55,5.58-4.32-.9-8.91-2.25-13.24-3.02-18.77-3.94-38.91-4.18-56.8,3.63h0Z"></path>
</svg>
